<svg id="_003-envelope" data-name="003-envelope" xmlns="http://www.w3.org/2000/svg" width="30.205" height="22.07" viewBox="0 0 30.205 22.07">
  <g id="Grupo_102" data-name="Grupo 102">
    <path id="Caminho_196" data-name="Caminho 196" d="M26.517,57.75H3.694A3.625,3.625,0,0,0,0,61.3V76.273A3.625,3.625,0,0,0,3.694,79.82H26.511A3.625,3.625,0,0,0,30.2,76.273V61.3A3.621,3.621,0,0,0,26.517,57.75Zm2.006,18.523A1.97,1.97,0,0,1,26.517,78.2H3.694a1.97,1.97,0,0,1-2.006-1.926V61.3a1.97,1.97,0,0,1,2.006-1.926H26.511A1.97,1.97,0,0,1,28.517,61.3V76.273Z" transform="translate(0 -57.75)" fill="#e13242"/>
    <path id="Caminho_197" data-name="Caminho 197" d="M71.317,116.682l7.387-6.36a.791.791,0,0,0,.063-1.146.873.873,0,0,0-1.194-.06l-10.187,8.779-1.987-1.7c-.006-.006-.012-.012-.012-.018a1.237,1.237,0,0,0-.137-.114l-8.087-6.948a.867.867,0,0,0-1.194.066.787.787,0,0,0,.069,1.146l7.475,6.414-7.443,6.69a.791.791,0,0,0-.037,1.146.881.881,0,0,0,.619.258.865.865,0,0,0,.575-.216l7.556-6.786,2.05,1.758a.868.868,0,0,0,1.125-.006l2.106-1.812,7.512,6.852a.871.871,0,0,0,1.194-.03.791.791,0,0,0-.031-1.146Z" transform="translate(-52.268 -105.833)" fill="#e13242"/>
  </g>
</svg>
