<svg xmlns="http://www.w3.org/2000/svg" xmlns:xlink="http://www.w3.org/1999/xlink" width="376.065" height="347.006" viewBox="0 0 376.065 347.006">
  <defs>
    <linearGradient id="linear-gradient" x1="-0.896" y1="1.041" x2="1.359" y2="0.254" gradientUnits="objectBoundingBox">
      <stop offset="0.006" stop-color="#a3eac8"/>
      <stop offset="1" stop-color="#2e8484"/>
    </linearGradient>
    <linearGradient id="linear-gradient-2" x1="-0.211" y1="0.994" x2="0.887" y2="-0.823" gradientUnits="objectBoundingBox">
      <stop offset="0" stop-color="#ffe35c"/>
      <stop offset="1" stop-color="#ff3b3b"/>
    </linearGradient>
    <linearGradient id="linear-gradient-3" x1="-0.186" y1="0.624" x2="0.965" y2="0.624" gradientUnits="objectBoundingBox">
      <stop offset="0" stop-color="#ffddac"/>
      <stop offset="1" stop-color="#ff814d"/>
    </linearGradient>
    <linearGradient id="linear-gradient-4" x1="-0.08" y1="1.037" x2="1.022" y2="0.264" gradientUnits="objectBoundingBox">
      <stop offset="0.006" stop-color="#6bdbff"/>
      <stop offset="1" stop-color="#3759af"/>
    </linearGradient>
    <linearGradient id="linear-gradient-5" x1="0.287" y1="0.958" x2="0.954" y2="-0.086" xlink:href="#linear-gradient-3"/>
    <linearGradient id="linear-gradient-6" x1="-0.008" y1="0.49" x2="1.212" y2="0.49" gradientUnits="objectBoundingBox">
      <stop offset="0.006" stop-color="#c8eaff"/>
      <stop offset="1" stop-color="#68acec"/>
    </linearGradient>
    <linearGradient id="linear-gradient-7" x1="-0.116" y1="1.288" x2="0.833" y2="1.288" xlink:href="#linear-gradient-2"/>
    <linearGradient id="linear-gradient-8" x1="0.755" y1="1.269" x2="0.103" y2="-0.491" xlink:href="#linear-gradient-2"/>
    <linearGradient id="linear-gradient-9" x1="0.904" y1="-0.054" x2="-0.003" y2="0.346" gradientUnits="objectBoundingBox">
      <stop offset="0.006" stop-color="#dff3ff"/>
      <stop offset="0.257" stop-color="#dcf1fe"/>
      <stop offset="0.432" stop-color="#d3ebfd"/>
      <stop offset="0.585" stop-color="#c3e2fa"/>
      <stop offset="0.725" stop-color="#add5f7"/>
      <stop offset="0.856" stop-color="#91c4f2"/>
      <stop offset="0.978" stop-color="#6eb0ed"/>
      <stop offset="1" stop-color="#68acec"/>
    </linearGradient>
    <linearGradient id="linear-gradient-10" x1="0.845" y1="-1.677" x2="0.528" y2="0.356" xlink:href="#linear-gradient-3"/>
    <linearGradient id="linear-gradient-11" x1="0.803" y1="1.824" x2="0.408" y2="0.043" gradientUnits="objectBoundingBox">
      <stop offset="0.018" stop-color="#00b0d8"/>
      <stop offset="1" stop-color="#18568e"/>
    </linearGradient>
    <linearGradient id="linear-gradient-12" x1="1.24" y1="2.407" x2="0.844" y2="0.627" xlink:href="#linear-gradient"/>
    <linearGradient id="linear-gradient-13" x1="-1.051" y1="2.112" x2="-1.446" y2="0.332" xlink:href="#linear-gradient"/>
    <linearGradient id="linear-gradient-14" x1="-0.008" y1="0.971" x2="-0.403" y2="-0.81" xlink:href="#linear-gradient"/>
    <linearGradient id="linear-gradient-15" x1="-1.034" y1="-2.452" x2="-1.35" y2="-0.418" xlink:href="#linear-gradient-3"/>
    <linearGradient id="linear-gradient-16" x1="0.175" y1="-2.872" x2="-0.142" y2="-0.838" xlink:href="#linear-gradient-3"/>
    <linearGradient id="linear-gradient-17" x1="0.98" y1="-0.811" x2="-0.334" y2="-0.079" xlink:href="#linear-gradient-2"/>
    <linearGradient id="linear-gradient-18" x1="-0.622" y1="-0.076" x2="0.712" y2="-0.306" xlink:href="#linear-gradient-4"/>
    <linearGradient id="linear-gradient-19" x1="-0.702" y1="-1.017" x2="0.141" y2="-1.017" xlink:href="#linear-gradient-4"/>
    <linearGradient id="linear-gradient-20" x1="0.102" y1="0.433" x2="1.322" y2="0.433" xlink:href="#linear-gradient-4"/>
    <linearGradient id="linear-gradient-21" x1="0.758" y1="0.393" x2="2.112" y2="0.393" xlink:href="#linear-gradient-3"/>
    <linearGradient id="linear-gradient-22" x1="1.17" y1="-0.429" x2="1.751" y2="0.874" xlink:href="#linear-gradient-3"/>
    <linearGradient id="linear-gradient-23" x1="4.369" y1="-2.208" x2="4.053" y2="-0.174" xlink:href="#linear-gradient-3"/>
    <linearGradient id="linear-gradient-24" x1="2.588" y1="-0.493" x2="1.274" y2="0.239" xlink:href="#linear-gradient-2"/>
    <linearGradient id="linear-gradient-25" x1="0.874" y1="0.618" x2="-0.163" y2="0.069" xlink:href="#linear-gradient-9"/>
    <linearGradient id="linear-gradient-26" x1="-0.261" y1="1.314" x2="-1.505" y2="-0.613" xlink:href="#linear-gradient-2"/>
    <linearGradient id="linear-gradient-27" x1="-0.468" y1="0.498" x2="1.003" y2="0.498" gradientUnits="objectBoundingBox">
      <stop offset="0.006" stop-color="#0f6aaa"/>
      <stop offset="1" stop-color="#141d66"/>
    </linearGradient>
    <linearGradient id="linear-gradient-28" x1="-0.301" y1="0.486" x2="1.163" y2="0.486" gradientUnits="objectBoundingBox">
      <stop offset="0" stop-color="#ff4545"/>
      <stop offset="1" stop-color="#90104f"/>
    </linearGradient>
    <linearGradient id="linear-gradient-29" x1="-17.002" y1="4.23" x2="3.664" y2="-131.524" xlink:href="#linear-gradient-27"/>
    <linearGradient id="linear-gradient-30" x1="0.601" y1="1.031" x2="0.853" y2="-0.103" xlink:href="#linear-gradient-27"/>
    <linearGradient id="linear-gradient-31" x1="28.62" y1="362.954" x2="49.862" y2="-82.462" xlink:href="#linear-gradient-27"/>
    <linearGradient id="linear-gradient-32" x1="0.151" y1="-0.429" x2="-1.023" y2="0.37" xlink:href="#linear-gradient-28"/>
    <linearGradient id="linear-gradient-33" x1="-0.454" y1="-0.738" x2="0.65" y2="-0.738" xlink:href="#linear-gradient-27"/>
    <linearGradient id="linear-gradient-34" x1="-1.179" y1="-4.55" x2="-1.495" y2="-2.516" xlink:href="#linear-gradient-3"/>
    <linearGradient id="linear-gradient-35" x1="-0.687" y1="1.265" x2="-0.159" y2="2.283" xlink:href="#linear-gradient-28"/>
    <linearGradient id="linear-gradient-36" x1="0.1" y1="1.394" x2="1.243" y2="1.394" xlink:href="#linear-gradient-27"/>
    <linearGradient id="linear-gradient-37" x1="-1006.17" y1="3825.413" x2="-64.038" y2="348.768" gradientUnits="objectBoundingBox">
      <stop offset="0" stop-color="#ffe35c"/>
      <stop offset="1" stop-color="#ff7b00"/>
    </linearGradient>
    <linearGradient id="linear-gradient-38" x1="-1" y1="0.743" x2="0.606" y2="0.351" xlink:href="#linear-gradient-37"/>
    <linearGradient id="linear-gradient-39" x1="-2407.63" y1="240.08" x2="-316.032" y2="52.495" xlink:href="#linear-gradient-37"/>
    <linearGradient id="linear-gradient-40" x1="2.623" y1="1.856" x2="2.92" y2="0.654" xlink:href="#linear-gradient-27"/>
    <linearGradient id="linear-gradient-41" x1="-8.404" y1="1.505" x2="-6.688" y2="1.505" xlink:href="#linear-gradient-28"/>
  </defs>
  <g id="Grupo_182" data-name="Grupo 182" transform="translate(-102.872 -120.966) rotate(-2)" opacity="0.83">
    <path id="Caminho_45" data-name="Caminho 45" d="M506.693,574.48a24.991,24.991,0,0,1-3.656-.674c-1.633-.361-3.683-.792-6.09-1.1a52.426,52.426,0,0,0-8.12-.4,54.041,54.041,0,0,0-9.2,1.054A53.168,53.168,0,0,0,470.667,576a46.943,46.943,0,0,0-7.409,3.7,38.973,38.973,0,0,0-4.847,3.519c-1.114.955-1.709,1.564-1.712,1.56s.133-.825.5-2.284a40.509,40.509,0,0,1,2.088-6.035,51.5,51.5,0,0,1,4.571-8.284,61.071,61.071,0,0,1,7.294-8.848,64.676,64.676,0,0,1,9.507-7.893,62.45,62.45,0,0,1,10.553-5.785,53.985,53.985,0,0,1,9.78-3.145,30.055,30.055,0,0,1,6.795-.785,20.145,20.145,0,0,1,8.394,2.111,16.442,16.442,0,0,1,5.868,4.87,13.032,13.032,0,0,1,2.5,6.242,13.567,13.567,0,0,1-.891,6.47,19.454,19.454,0,0,1-3.371,5.556,26.1,26.1,0,0,1-4.382,4.08,20.172,20.172,0,0,1-4.578,2.589A11.533,11.533,0,0,1,506.693,574.48Z" transform="translate(-191.358 -213.17)" fill="url(#linear-gradient)"/>
    <path id="Caminho_46" data-name="Caminho 46" d="M426.459,465.845c-.512,1-1.508,2.437-2.725,4.33a63.567,63.567,0,0,0-4.014,7.11,55.414,55.414,0,0,0-3.622,9.967,65.5,65.5,0,0,0-1.909,12.046,81.842,81.842,0,0,0,.145,12.413,94.78,94.78,0,0,0,1.571,10.838c.642,3.151,1.338,5.748,1.874,7.55s.913,2.815.921,2.826a74.39,74.39,0,0,1-7.4-8.137,94.5,94.5,0,0,1-6.748-9.635,87.676,87.676,0,0,1-6.455-12.763,77.382,77.382,0,0,1-4.4-14.976,69.743,69.743,0,0,1-1.131-15.347,63.267,63.267,0,0,1,1.84-13.008,40.628,40.628,0,0,1,2.886-8.159,28.244,28.244,0,0,1,6.579-8.472,21.827,21.827,0,0,1,7.852-4.46,14.7,14.7,0,0,1,7.4-.422,11.6,11.6,0,0,1,5.815,3.181,14.363,14.363,0,0,1,3.389,5.655,22.085,22.085,0,0,1,1.066,6.586,28.274,28.274,0,0,1-.686,6.647A26.161,26.161,0,0,1,426.459,465.845Z" transform="translate(-157.661 -158.331)" fill="url(#linear-gradient-2)"/>
    <path id="Caminho_47" data-name="Caminho 47" d="M563.251,438.989a50.734,50.734,0,0,1-5.406,2.59c-2.168.9-4.673,1.8-7.423,2.635s-5.743,1.613-8.895,2.314-6.461,1.335-9.855,1.928-6.871,1.15-10.357,1.729-6.979,1.186-10.379,1.908c-1.7.361-3.383.756-5,1.185s-3.23.924-4.84,1.492a68.983,68.983,0,0,0-9.494,4.165,78.137,78.137,0,0,0-16.713,12.01,85.478,85.478,0,0,0-18.368,24.967c-1.364,2.826-2.013,4.5-2.021,4.493.01,0,.154-1.773.676-4.914a86.292,86.292,0,0,1,3.264-13.014,90.279,90.279,0,0,1,8.3-17.944A88.83,88.83,0,0,1,481.8,445.8a84.107,84.107,0,0,1,10.109-8.17q2.717-1.869,5.6-3.525c1.911-1.1,3.793-2.092,5.663-3.028,3.734-1.868,7.369-3.484,10.826-4.978s6.738-2.853,9.783-4.145,5.852-2.507,8.379-3.662,4.776-2.242,6.724-3.244c3.9-2,6.582-3.653,8.274-4.611l4.715-2.662,4.084-2.319c1.287-.736,2.519-1.447,3.737-2.168s2.415-1.452,3.61-2.189a69.376,69.376,0,0,1,7.057-4.029,11.192,11.192,0,0,1,6.838-1.194,7.961,7.961,0,0,1,5.474,4.542,15.166,15.166,0,0,1,1.424,4.733,22.772,22.772,0,0,1-.035,6.257,30.211,30.211,0,0,1-2.032,7.366,36.624,36.624,0,0,1-4.351,7.665,42.617,42.617,0,0,1-6.475,6.978A48.555,48.555,0,0,1,563.251,438.989Z" transform="translate(-190.202 -136.527)" fill="url(#linear-gradient-3)"/>
    <path id="Caminho_48" data-name="Caminho 48" d="M512.2,279.713l-1.208.572-.608.283s-1.972.889-2.674,1.214a147.842,147.842,0,0,0-16.286,8.759,114.564,114.564,0,0,0-14.543,10.706,93.939,93.939,0,0,0-11.941,12.442,84.249,84.249,0,0,0-14.321,26.831,93.653,93.653,0,0,0-2.967,11.929c-.655,3.61-1.033,6.793-1.274,9.417s-.351,4.689-.415,6.095-.082,2.153-.083,2.153-.108-.737-.285-2.137-.419-3.46-.627-6.117-.371-5.91-.329-9.687a96.546,96.546,0,0,1,.984-12.781,90.629,90.629,0,0,1,3.529-15.12A92.689,92.689,0,0,1,456.27,308a104.478,104.478,0,0,1,11-15.988,127.4,127.4,0,0,1,14.289-14.554,161.11,161.11,0,0,1,16.519-12.565q1.079-.721,2.167-1.423l.511-.334.46-.307.915-.623q1.825-1.258,3.612-2.6c2.38-1.785,4.7-3.666,6.954-5.607a165.187,165.187,0,0,0,12.646-12.178c3.912-4.175,7.5-8.408,10.746-12.563s6.137-8.231,8.675-12.106,4.717-7.549,6.559-10.908a170.585,170.585,0,0,0,7.5-15.591c1.484-3.439,2.81-6.77,3.955-9.964s2.112-6.25,2.905-9.153a97.483,97.483,0,0,0,2.973-15.652c.251-2.328.408-4.525.549-6.572s.264-3.939.472-5.637c.409-3.386,1.182-6.014,3.073-7.278a4.91,4.91,0,0,1,3.5-.679,11.659,11.659,0,0,1,4.694,1.962,24.5,24.5,0,0,1,5.347,5,37.52,37.52,0,0,1,5.012,8.258C643.164,240.076,513.8,278.939,512.2,279.713Z" transform="translate(-185.024)" fill="url(#linear-gradient-4)"/>
    <path id="Caminho_49" data-name="Caminho 49" d="M377.443,276.3a97.216,97.216,0,0,1-3.246,11.381c-.789,2.348-1.681,4.868-2.612,7.5s-1.9,5.372-2.826,8.194-1.8,5.725-2.549,8.7q-.558,2.234-1,4.526c-.147.758-.283,1.545-.41,2.341s-.241,1.6-.348,2.41a100.754,100.754,0,0,0-.459,20.457A125.92,125.92,0,0,0,367.223,362q.288,1.189.594,2.351l.3,1.123q.149.546.309,1.087c.427,1.443.917,2.857,1.435,4.235,1.037,2.758,2.184,5.367,3.235,7.79.526,1.212,1.03,2.376,1.5,3.489l.675,1.626.315.783.3.773c.39,1.039.662,2,.921,2.879s.49,1.677.735,2.391a13.916,13.916,0,0,0,1.5,3.2,8.075,8.075,0,0,0,.761,1,8.189,8.189,0,0,1-1.047-.767,11.935,11.935,0,0,1-1.127-1.094,19.092,19.092,0,0,1-1.333-1.676c-.464-.647-.94-1.374-1.44-2.14s-1.028-1.571-1.613-2.316l-.99-1.23-1.088-1.325c-.752-.905-1.558-1.857-2.408-2.861-1.7-2.01-3.581-4.221-5.514-6.767-.965-1.275-1.94-2.634-2.892-4.1q-.356-.548-.708-1.117l-.683-1.126q-.663-1.1-1.322-2.238a132.215,132.215,0,0,1-9.615-20.44,113.328,113.328,0,0,1-5.978-23.633q-.209-1.526-.372-3.054c-.107-1.017-.2-2.035-.275-3.071-.15-2.059-.228-4.09-.251-6.079-.044-3.976.134-7.776.409-11.31s.644-6.809,1.014-9.79.745-5.67,1.081-8.052c.68-4.764,1.191-8.308,1.625-10.541a101.606,101.606,0,0,1,3.2-12.306,58.088,58.088,0,0,1,3.873-9.277,25.371,25.371,0,0,1,2.065-3.242c.352-.463.711-.894,1.074-1.3s.715-.845,1.059-1.285c.692-.881,1.338-1.786,2.025-2.61a10.016,10.016,0,0,1,2.378-2.162,7.3,7.3,0,0,1,1.567-.736,6.619,6.619,0,0,1,1.8-.326,7.493,7.493,0,0,1,4.064,1.065,10.724,10.724,0,0,1,2.08,1.582,18.481,18.481,0,0,1,1.935,2.218,26.358,26.358,0,0,1,3.1,5.519,42.557,42.557,0,0,1,3.024,13.666A60.638,60.638,0,0,1,377.443,276.3Z" transform="translate(-130.694 -53.07)" fill="url(#linear-gradient-5)"/>
    <path id="Caminho_50" data-name="Caminho 50" d="M449.77,298.25a50.387,50.387,0,0,1-4.783,2.522c-2.147,1.057-4.787,2.367-7.706,3.981s-6.117,3.529-9.365,5.719a120.264,120.264,0,0,0-9.681,7.251,115.681,115.681,0,0,0-8.762,8.072c-2.652,2.71-4.976,5.374-6.874,7.738s-3.372,4.424-4.373,5.887-1.536,2.322-1.539,2.32.046-1,.208-2.782.455-4.346,1-7.463a103.369,103.369,0,0,1,2.507-10.739,113.306,113.306,0,0,1,4.422-12.46,115.071,115.071,0,0,1,6.24-12.6,106.634,106.634,0,0,1,7.423-11.24,84.85,84.85,0,0,1,7.415-8.585,40.756,40.756,0,0,1,5.7-4.906,26.311,26.311,0,0,1,8.791-3.8,20.928,20.928,0,0,1,8.447-.22,14.436,14.436,0,0,1,6.564,2.977,11.983,11.983,0,0,1,3.721,5.452,15.471,15.471,0,0,1,.656,6.533,21.6,21.6,0,0,1-1.661,6.276,23.212,23.212,0,0,1-3.361,5.549A22.549,22.549,0,0,1,449.77,298.25Z" transform="translate(-159.853 -68.754)" fill="url(#linear-gradient-6)"/>
    <path id="Caminho_51" data-name="Caminho 51" d="M652.444,489c-.858-.443-2.077-1.335-3.8-2.5a77.259,77.259,0,0,0-6.83-4.108c-1.416-.76-2.956-1.535-4.651-2.336-1.676-.8-3.422-1.6-5.214-2.39-3.587-1.578-7.359-3.1-11.13-4.422a105.6,105.6,0,0,0-11.108-3.269,67.981,67.981,0,0,0-9.835-1.58,46.089,46.089,0,0,0-7.1-.05c-1.729.131-2.719.306-2.719.3s.762-.629,2.24-1.623a47.2,47.2,0,0,1,6.573-3.647,71.158,71.158,0,0,1,10.327-3.757,104.75,104.75,0,0,1,12.722-2.725,134.861,134.861,0,0,1,13.522-1.359c2.234-.113,4.439-.172,6.585-.178,2.125-.013,4.281.042,6.367.175a65.782,65.782,0,0,1,11.477,1.679,36.166,36.166,0,0,1,7.622,2.667,25.3,25.3,0,0,1,8.019,6.446,19.37,19.37,0,0,1,3.9,7.693,13.947,13.947,0,0,1-.1,7.135,12.388,12.388,0,0,1-3.467,5.6,15.436,15.436,0,0,1-5.66,3.31,22.8,22.8,0,0,1-6.33,1.127,27.325,27.325,0,0,1-6.05-.406A18.923,18.923,0,0,1,652.444,489Z" transform="translate(-261.366 -167.833)" fill="url(#linear-gradient-7)"/>
    <path id="Caminho_52" data-name="Caminho 52" d="M716.215,416.25c-1.356-.074-4.112-1.263-7.9-2.542-1.891-.64-4.04-1.3-6.366-1.867a69.974,69.974,0,0,0-7.361-1.389,75.628,75.628,0,0,0-7.539-.617c-2.431-.078-4.719-.037-6.685.05s-3.606.223-4.753.327-1.8.178-1.8.177.392-.512,1.113-1.407,1.78-2.169,3.149-3.678,3.048-3.246,5.019-5.055a73.087,73.087,0,0,1,6.7-5.469,69.521,69.521,0,0,1,7.914-4.94,64.8,64.8,0,0,1,8.221-3.685,52.093,52.093,0,0,1,7.243-2.093,20.942,20.942,0,0,1,4.863-.54,12.555,12.555,0,0,1,10.068,6.01,14.31,14.31,0,0,1,1.975,5.7,18.354,18.354,0,0,1-.371,6.451,23.134,23.134,0,0,1-2.324,6.019,22.864,22.864,0,0,1-3.376,4.641,14.712,14.712,0,0,1-3.815,2.97A7.674,7.674,0,0,1,716.215,416.25Z" transform="translate(-305.34 -130.118)" fill="#ffc539"/>
    <path id="Caminho_53" data-name="Caminho 53" d="M282.919,502.859c-9.309-13.811-24.1-35.94-65.163-44.62-10.355-2.19-58.706-12.851-68.074-48.44,2.634,6.02,9.131,9.255,14.866,7.575-8.546-8.328,4.128-31.241,17.514-32.423,12.534-1.106,28.38-2.017,41.742,22.541,7.042,12.945,17.692,30.075,24.61,42.881C253.149,459.138,280.769,499.669,282.919,502.859Z" transform="translate(-30.182 -130.644)" fill="url(#linear-gradient-8)"/>
    <path id="Caminho_54" data-name="Caminho 54" d="M253.97,651.645a37.6,37.6,0,0,1-5.015,2.97,39.543,39.543,0,0,1-6.574,2.534,41.947,41.947,0,0,1-7.843,1.457,45.388,45.388,0,0,1-8.632-.057c-11.828-1.182-24.288-7.035-33.92-17.3a56.869,56.869,0,0,1-6.57-8.485,55.043,55.043,0,0,1-4.963-9.922,53.729,53.729,0,0,1-3.394-22.309c.057-.94.135-1.885.238-2.811s.225-1.834.37-2.756a55.7,55.7,0,0,1,1.162-5.548,47.1,47.1,0,0,1,4.314-10.842,41.5,41.5,0,0,1,7.113-9.4,42.551,42.551,0,0,1,9.1-6.836,49.464,49.464,0,0,1,9.866-4.176,60.1,60.1,0,0,1,9.86-2.082,74.872,74.872,0,0,1,18.585.052,76.223,76.223,0,0,1,8.509,1.55c1.368.332,2.713.7,4.023,1.108s2.566.838,3.8,1.3a69.977,69.977,0,0,1,13.114,6.475,65.694,65.694,0,0,1,9.547,7.356,64.7,64.7,0,0,1,6.2,6.642c1.567,1.94,2.681,3.528,3.416,4.621s1.1,1.687,1.1,1.684-.468-.515-1.384-1.451-2.288-2.28-4.139-3.87a63.293,63.293,0,0,0-7.042-5.232,62.058,62.058,0,0,0-10.043-5.2,64.254,64.254,0,0,0-12.784-3.7q-1.743-.315-3.547-.544c-1.187-.15-2.392-.261-3.621-.338a67.269,67.269,0,0,0-7.558-.039,63.736,63.736,0,0,0-15.435,2.631,46.358,46.358,0,0,0-7.2,2.874,33.9,33.9,0,0,0-6.218,4,25.386,25.386,0,0,0-4.7,5.022,23.06,23.06,0,0,0-2.965,5.838,27.627,27.627,0,0,0-1.343,6.536c-.1,1.139-.141,2.3-.128,3.481q.01.884.059,1.778c.032.586.081,1.15.142,1.717a30.206,30.206,0,0,0,11.591,20.844,29.916,29.916,0,0,0,9.007,4.834,22.412,22.412,0,0,0,7.768,1.186,15.327,15.327,0,0,0,2.8-.36,12.1,12.1,0,0,0,2.027-.648,12.69,12.69,0,0,0,2.43-1.38c.145-.1.288-.21.43-.318l.371-.295a8.622,8.622,0,0,0,.657-.6,13.028,13.028,0,0,0,1.482-1.822,21.694,21.694,0,0,0,2.526-5.191,28.66,28.66,0,0,0,1.3-5.749c.116-.948.185-1.887.212-2.815.006-.23.009-.462.011-.691.005-.1-.01-.259-.018-.392l-.028-.406-.106-1.537c-.067-.978-.126-1.857-.163-2.635-.019-.389-.031-.753-.037-1.094s0-.65-.01-.974a9.984,9.984,0,0,0-.266-1.928,11.084,11.084,0,0,0-.595-1.788c-.474-1.118-1.047-2.038-1.45-2.924a4.654,4.654,0,0,1-.487-2.759,5.3,5.3,0,0,1,.216-.859c.051-.148.109-.3.176-.455s.138-.294.218-.443a6.615,6.615,0,0,1,1.382-1.724,8.249,8.249,0,0,1,2.277-1.444,10.008,10.008,0,0,1,3.2-.768,12.435,12.435,0,0,1,3.963.36,16.366,16.366,0,0,1,4.4,1.844,22.437,22.437,0,0,1,2.218,1.517c.719.554,1.412,1.148,2.078,1.771a34.823,34.823,0,0,1,3.684,4.078q.846,1.093,1.626,2.25l.387.581c.129.2.248.38.387.612q.4.667.784,1.367a37.268,37.268,0,0,1,2.629,6.088,41.006,41.006,0,0,1,2,14.533,42.4,42.4,0,0,1-3.949,16.251,39.5,39.5,0,0,1-5.062,8.1,37.167,37.167,0,0,1-3.551,3.8l-.5.454-.495.434q-.479.413-.975.815Q255.022,650.9,253.97,651.645Z" transform="translate(-44.504 -220.421)" fill="url(#linear-gradient-9)"/>
    <path id="Caminho_55" data-name="Caminho 55" d="M264.046,383.531A16.288,16.288,0,1,1,244.2,371.842,16.29,16.29,0,0,1,264.046,383.531Z" transform="translate(-73.389 -123.717)" fill="url(#linear-gradient-10)"/>
    <path id="Caminho_56" data-name="Caminho 56" d="M596.4,325.429a24.186,24.186,0,1,1-29.472-17.358A24.187,24.187,0,0,1,596.4,325.429Z" transform="translate(-239.707 -90.106)" fill="url(#linear-gradient-11)"/>
    <path id="Caminho_57" data-name="Caminho 57" d="M606.352,289.73a10.2,10.2,0,1,1-12.425-7.317A10.2,10.2,0,0,1,606.352,289.73Z" transform="translate(-259.387 -76.872)" fill="url(#linear-gradient-12)"/>
    <path id="Caminho_58" data-name="Caminho 58" d="M562.42,602.412a7.174,7.174,0,1,1-8.742-5.149A7.174,7.174,0,0,1,562.42,602.412Z" transform="translate(-239.446 -242.211)" fill="url(#linear-gradient-13)"/>
    <path id="Caminho_59" data-name="Caminho 59" d="M265.255,746.976a28.8,28.8,0,1,1-35.1-20.672A28.8,28.8,0,0,1,265.255,746.976Z" transform="translate(-61.093 -309.59)" fill="url(#linear-gradient-14)"/>
    <path id="Caminho_60" data-name="Caminho 60" d="M204.919,789.97a12.207,12.207,0,1,1-14.875-8.76A12.208,12.208,0,0,1,204.919,789.97Z" transform="translate(-46.566 -338.694)" fill="url(#linear-gradient-15)"/>
    <path id="Caminho_61" data-name="Caminho 61" d="M182.588,520.372a9.126,9.126,0,1,1-11.121-6.55A9.127,9.127,0,0,1,182.588,520.372Z" transform="translate(-38.027 -198.374)" fill="url(#linear-gradient-16)"/>
    <path id="Caminho_62" data-name="Caminho 62" d="M135.747,514.4a22.129,22.129,0,1,1-26.966-15.882A22.129,22.129,0,0,1,135.747,514.4Z" transform="translate(0 -190.119)" fill="url(#linear-gradient-17)"/>
    <path id="Caminho_63" data-name="Caminho 63" d="M250.625,584.521c-12.121,3.395-27.967,17.51-25.836,39.12-.915-3.438-2.423-2.6-1.969-6.134-7.717,1.933-10.14-2.4-11.377-7.53-1.648-6.848,3-14.95,7.832-19.69,7.2-7.054,26.361-9.345,40.432-7.857Z" transform="translate(-62.428 -234.318)" fill="url(#linear-gradient-18)"/>
    <path id="Caminho_64" data-name="Caminho 64" d="M270.466,557.356c-4.714-.1-9.64.205-13.914-2.3-3.721-2.181-8.179-8.177-3.805-11.8,5.47-4.535,9.68,1.065,11.908,5.764,1.1,2.315,2.125,6.687,4.591,7.845a2.452,2.452,0,0,0,.771.228Z" transform="translate(-83.338 -213.099)" fill="url(#linear-gradient-19)"/>
    <path id="Caminho_65" data-name="Caminho 65" d="M434.288,332.408A24.4,24.4,0,0,1,432,333.616c-1.028.506-2.293,1.134-3.692,1.907s-2.929,1.691-4.485,2.739a57.672,57.672,0,0,0-4.637,3.473,55.29,55.29,0,0,0-4.2,3.866c-1.27,1.3-2.384,2.575-3.292,3.707s-1.616,2.119-2.095,2.82-.735,1.112-.737,1.111.023-.48.1-1.333.217-2.081.481-3.574a49.536,49.536,0,0,1,1.2-5.145,54.227,54.227,0,0,1,2.118-5.967,55.175,55.175,0,0,1,2.988-6.034,51.088,51.088,0,0,1,3.557-5.383,40.6,40.6,0,0,1,3.551-4.113,19.574,19.574,0,0,1,2.729-2.349,12.579,12.579,0,0,1,4.212-1.818,10,10,0,0,1,4.045-.106,6.9,6.9,0,0,1,3.144,1.426,5.738,5.738,0,0,1,1.782,2.612,7.4,7.4,0,0,1,.314,3.129,10.35,10.35,0,0,1-.795,3.006,11.161,11.161,0,0,1-1.61,2.658A10.808,10.808,0,0,1,434.288,332.408Z" transform="translate(-166.244 -95.337)" fill="url(#linear-gradient-20)"/>
    <path id="Caminho_66" data-name="Caminho 66" d="M411.529,219.291a50.027,50.027,0,0,1-2.762,8.651,110.465,110.465,0,0,1-5.773,11.882c-2.336,4.226-5.017,8.592-7.745,12.961s-5.494,8.758-7.993,13.11a112.428,112.428,0,0,0-6.453,12.857,68.161,68.161,0,0,0-3.726,11.732,58.433,58.433,0,0,0-1.211,8.7c-.13,2.131-.108,3.357-.115,3.356s-.477-1.114-1.174-3.174a59.165,59.165,0,0,1-2.234-8.914,72.2,72.2,0,0,1-.961-13.483,114.239,114.239,0,0,1,1.508-15.89c.859-5.422,2-10.829,3.1-15.927s2.171-9.892,3-14.135,1.436-7.939,1.851-10.9.668-5.2.942-6.61a45.01,45.01,0,0,1,2.191-7.675,38.116,38.116,0,0,1,3.207-6.454,24.2,24.2,0,0,1,4.232-5.183,11.745,11.745,0,0,1,5.461-2.917,9.006,9.006,0,0,1,6.176.993,14.966,14.966,0,0,1,5.5,5.578,26.234,26.234,0,0,1,3.3,9.61A35.2,35.2,0,0,1,411.529,219.291Z" transform="translate(-146.562 -29.107)" fill="url(#linear-gradient-21)"/>
    <path id="Caminho_67" data-name="Caminho 67" d="M299.085,173.451a39.851,39.851,0,0,1,2.252,4.695c.87,2.084,1.816,4.638,2.722,7.484s1.775,5.983,2.538,9.225l.28,1.211.271,1.216q.269,1.22.524,2.454c.341,1.645.661,3.3.948,4.951a95.591,95.591,0,0,1,1.234,9.626c.108,1.526.157,3,.149,4.376s-.073,2.672-.174,3.846c-.2,2.35-.533,4.231-.771,5.535s-.4,2.033-.4,2.033-.108-.738-.325-2.034-.551-3.143-1.122-5.3c-.286-1.078-.635-2.233-1.055-3.439s-.913-2.466-1.47-3.762c-1.114-2.593-2.492-5.334-4-8.107-.752-1.387-1.534-2.781-2.329-4.169q-.6-1.04-1.2-2.073l-.6-1.028-.6-1.015c-1.592-2.666-3.189-5.182-4.685-7.43-2.985-4.5-5.571-7.938-6.616-9.693a30.856,30.856,0,0,1-2.51-5.247,21.675,21.675,0,0,1-1.207-4.966c-.341-3.116.283-5.765,2.142-7.157s4.614-1.228,7.564.312a18.886,18.886,0,0,1,4.433,3.31A25.833,25.833,0,0,1,299.085,173.451Z" transform="translate(-99.043 -14.74)" fill="url(#linear-gradient-22)"/>
    <path id="Caminho_68" data-name="Caminho 68" d="M350.71,184.957a3.859,3.859,0,1,1-4.7-2.77A3.86,3.86,0,0,1,350.71,184.957Z" transform="translate(-131.729 -24.363)" fill="url(#linear-gradient-23)"/>
    <path id="Caminho_69" data-name="Caminho 69" d="M340.237,200.364a9.357,9.357,0,1,1-11.4-6.716A9.358,9.358,0,0,1,340.237,200.364Z" transform="translate(-120.549 -30.287)" fill="url(#linear-gradient-24)"/>
    <path id="Caminho_70" data-name="Caminho 70" d="M285.472,598.017A46.508,46.508,0,0,1,297.4,596.26a65.071,65.071,0,0,1,8.24.3,68.9,68.9,0,0,1,9.275,1.554c.81.194,1.629.4,2.458.637.414.116.83.236,1.25.363l1.293.4a47.128,47.128,0,0,1,5.282,2.048,56.12,56.12,0,0,1,9.495,5.569,72.337,72.337,0,0,1,24.4,31.643,56.608,56.608,0,0,1,2.481,8.178,46.371,46.371,0,0,1,1.03,7.389,37.959,37.959,0,0,1-.14,6.125,32.633,32.633,0,0,1-.793,4.512c-.3,1.214-.61,2.131-.829,2.748s-.352.932-.35.934.005-.346-.014-.99-.067-1.589-.214-2.773a33.188,33.188,0,0,0-2.645-9.381,41.312,41.312,0,0,0-3.082-5.689,49.374,49.374,0,0,0-4.365-5.763,59.966,59.966,0,0,0-11.91-10.349,54.87,54.87,0,0,0-14.044-6.779,34.2,34.2,0,0,0-6.592-1.366,21.849,21.849,0,0,0-2.852-.1c-.2.01-.482.008-.728.016l-.761.022c-.507.018-1.014.047-1.517.082a53.362,53.362,0,0,0-5.75.721c-1.787.322-3.41.7-4.829,1.095-2.848.78-4.843,1.565-6.085,1.946s-2.4.71-3.444.971-2,.456-2.9.593-1.75.218-2.616.288-1.756.138-2.7.266a29,29,0,0,0-2.963.558c-1.029.243-2.091.541-3.17.827a17.081,17.081,0,0,1-6.632.773,7.891,7.891,0,0,1-3.168-1.132,8.188,8.188,0,0,1-2.593-2.672,11.627,11.627,0,0,1-1.537-4.387,17.069,17.069,0,0,1,.218-5.938,23.122,23.122,0,0,1,2.574-6.732,28.859,28.859,0,0,1,4.935-6.356,33.658,33.658,0,0,1,6.679-5.046A37.244,37.244,0,0,1,285.472,598.017Z" transform="translate(-89.782 -241.792)" fill="url(#linear-gradient-25)"/>
    <path id="Caminho_71" data-name="Caminho 71" d="M422.9,705.727a14.122,14.122,0,0,1,3.156,2.4,27.414,27.414,0,0,1,3.966,4.817,29.4,29.4,0,0,1,3.113,6.389c.1.279.19.561.279.84s.169.556.25.836c.16.56.313,1.13.452,1.7.279,1.147.506,2.316.668,3.481a27.022,27.022,0,0,1,.144,6.684,21.043,21.043,0,0,1-1.245,5.212,19.6,19.6,0,0,1-1.526,3.131c-.42.694-.685,1.055-.682,1.057s-.144-.422-.443-1.129a18.582,18.582,0,0,0-1.436-2.741,16.341,16.341,0,0,0-2.625-3.159,19.649,19.649,0,0,0-3.636-2.649c-.665-.383-1.351-.739-2.051-1.074q-.526-.251-1.057-.487c-.177-.078-.356-.159-.531-.232s-.347-.141-.519-.207a15.41,15.41,0,0,0-3.657-.927c-1.046-.125-1.908-.12-2.608-.148a4.323,4.323,0,0,1-1.554-.236,4.067,4.067,0,0,1-1.638-1.823,13,13,0,0,1-1.173-3.388,19.818,19.818,0,0,1,.433-9.573,14.93,14.93,0,0,1,5.3-8.072,8.516,8.516,0,0,1,4.041-1.561A8.393,8.393,0,0,1,422.9,705.727Z" transform="translate(-165.871 -298.802)" fill="url(#linear-gradient-26)"/>
    <path id="Caminho_72" data-name="Caminho 72" d="M464.462,395.3l.007-.007-.055-.011c-.16-.059-.323-.117-.486-.168a4.568,4.568,0,0,0-2.019-.156,3.81,3.81,0,0,0-1.349.4,5.274,5.274,0,0,0-1.084.663c-.193.139-.38.281-.559.421,1.491-1.161.925-.708.487-.463-.232.131-1.008.476-.917.456-.535.2-1.072.393-1.6.611a22.153,22.153,0,0,0-4.662,2.675,28.1,28.1,0,0,0-4.519,4.1c-.3.342-.59.7-.877,1.051-.228.283-.451.573-.672.861-.012.017-.464.6-.179.239-.7.888-1.374,1.786-2.007,2.722-4.629,6.83-7.711,14.6-10.328,22.383a143.356,143.356,0,0,0-6.14,26.526,95.96,95.96,0,0,0,.644,31.834,94.471,94.471,0,0,0,3.809,11.2c.2.512-.609-2.323-.683-2.866-.374-2.726-.907-5.423-1.265-8.15-.352-2.68-.594-5.385-.768-8.082a120.711,120.711,0,0,1,.086-15.941,134.25,134.25,0,0,1,5.329-28.738c2.26-7.673,5.149-15.462,9.819-22.025a35.806,35.806,0,0,1,3.67-4.379,23.523,23.523,0,0,1,2.055-1.871l.127-.1.067-.049c.178-.134.357-.264.538-.394.42-.3.851-.583,1.287-.859a24.66,24.66,0,0,1,2.307-1.28c.271-.132.546-.256.823-.376.1-.042.265-.106.344-.136.267-.1.54-.18.813-.262a19.377,19.377,0,0,1,2.532-.567l.1-.015.34-.028c.217-.017.434-.026.652-.035h.01c.061.015.122.029.181.047a5.755,5.755,0,0,0,1.27.4c-.042,0-.02,0,.1.019.223.043.455.076.7.1.289.033.16.01-.073-.024a5.01,5.01,0,0,0,4.325-1.343,5.073,5.073,0,0,0,1.323-4.822A5.171,5.171,0,0,0,464.462,395.3Z" transform="translate(-175.496 -136.103)" fill="url(#linear-gradient-27)"/>
    <path id="Caminho_73" data-name="Caminho 73" d="M452.64,357.306c-2.269-.035-4.717,2.433-3.785,4.809a4.91,4.91,0,0,1,.163.488c.016.2.06.612.057.8s-.106,1.036-.077.916a11.3,11.3,0,0,1-.284,1.234,20.745,20.745,0,0,1-2.438,5.382,57.119,57.119,0,0,1-3.393,4.78c-1.416,1.862-2.6,3.935-3.823,5.927-5.085,8.274-9.8,16.77-12.707,26.083-1.265,4.057-2.6,8.488-2.144,12.768.045.417-.225,4.513-.068,4.111.922-2.35-.158-16.692,10.864-31.389,2.958-3.945,5.067-8.4,7.965-12.387,2.436-3.352,5.278-6.362,7.876-9.587,2.468-3.065,5.261-5.889,5.58-10.026A3.865,3.865,0,0,0,452.64,357.306Z" transform="translate(-174.24 -116.361)" fill="url(#linear-gradient-28)"/>
    <g id="Grupo_4" data-name="Grupo 4" transform="translate(191.161 195.115)">
      <path id="Caminho_74" data-name="Caminho 74" d="M365.471,470.756q-.19-.4-.374-.791.11.419.221.83Z" transform="translate(-334.43 -370.619)" fill="url(#linear-gradient-29)"/>
      <path id="Caminho_75" data-name="Caminho 75" d="M317.165,279.363c-.415-1.506-.871-3.005-1.391-4.477-.245-.693-.448-1.4-.7-2.089-.108-.3-.223-.6-.34-.9-.137-.346-.28-.69-.421-1.034a18.927,18.927,0,0,0-3.434-6.32,4.833,4.833,0,0,0-.447-1.045,5.451,5.451,0,0,0-2.987-2.329,5.108,5.108,0,0,0-5.41,1.142,5.556,5.556,0,0,0-1.327,5.287,5.04,5.04,0,0,0,6.1,3.592l.015,0c.229.187.462.371.707.537l-.171-.116c.031.024.061.047.086.067a19.257,19.257,0,0,1,1.512,1.435c.124.13.245.262.366.394l.049.052c.245.352.48.709.712,1.07a23.147,23.147,0,0,1,1.221,2.084c.188.371.358.751.53,1.129.088.192.173.385.258.578.035.079.364.881.183.416l.174.426c-.024-.057,0,0,.069.18.079.2.156.409.234.614.156.412.305.827.454,1.242.324.908.618,1.824.9,2.745a145.262,145.262,0,0,1,4.143,18.229c.8,4.813,1.723,9.607,2.459,14.431.776,5.094,1.577,10.186,2.509,15.252,1.764,9.589,3.861,19.339,7.987,28.221-1.258-4.757-2.5-10.029-3.437-13.931-1.4-5.817-2.169-14.306-3.115-20.212-1.526-9.53-2.7-19.11-3.984-28.673A135.192,135.192,0,0,0,317.165,279.363Zm-6.25-11.99a6.5,6.5,0,0,0,.143-.87c0,.01.008.019.011.029C311.068,266.041,311.329,265.6,310.915,267.373Z" transform="translate(-300.538 -260.827)" fill="url(#linear-gradient-30)"/>
      <path id="Caminho_76" data-name="Caminho 76" d="M314.5,283.242c-.255-.193-.673-.456,0,0Z" transform="translate(-307.677 -272.462)" fill="url(#linear-gradient-31)"/>
    </g>
    <path id="Caminho_77" data-name="Caminho 77" d="M752.5,296.14c-.068.018-.135.037-.2.057-8.815-1.1-17.747-1.021-26.331,1.591a80.039,80.039,0,0,0-12.817,5.241,137.6,137.6,0,0,0-11.841,7.117q-5.991,3.843-11.822,7.933c-3.945,2.784-7.7,5.807-11.591,8.668a279,279,0,0,1-23.473,16.075,122.1,122.1,0,0,1-12.923,6.831c-.4.174-.12.854.289.71a79.622,79.622,0,0,0,12.267-5.41c4.086-2.264,8.036-4.772,11.915-7.375,3.976-2.666,7.859-5.468,11.734-8.279,3.894-2.826,7.89-5.507,11.826-8.272,3.884-2.727,7.806-5.445,11.921-7.814a83.941,83.941,0,0,1,12.3-5.845,76.088,76.088,0,0,1,12.888-3.772c1.057-.2,2.122-.358,3.188-.5.456-.063.913-.131,1.369-.191l.453-.054c.355-.038.71-.071,1.065-.1a54.444,54.444,0,0,1,6.767-.172c1.109.038,2.216.12,3.321.226.56.055,1.12.122,1.679.193.053.007.183.027.306.046.228.038.456.077.685.118a40.687,40.687,0,0,1,7.03,1.991,4.409,4.409,0,0,0,4.361-1.128,4.659,4.659,0,0,0,1.174-4.283c.314,2.071.095.211-.055-.365A4.542,4.542,0,0,0,752.5,296.14Z" transform="translate(-288.27 -83.93)" fill="#ffc539"/>
    <path id="Caminho_78" data-name="Caminho 78" d="M186.371,584.22c-6.258,3.742-11.028,9.288-14.736,15.5a80.056,80.056,0,0,0-9.14,22.671,71.161,71.161,0,0,0-2.151,21.589,48.72,48.72,0,0,0,1.838,10.3,42.836,42.836,0,0,0,1.967,5.155c.866,1.932,1.883,4.109,3.659,5.322a4.239,4.239,0,0,0,5.144-.646A4.032,4.032,0,0,0,174,660.037h.069a5.266,5.266,0,0,0-1.167-2.144l-.048-.06c-.173-.235-.342-.473-.509-.713-.516-.742-.991-1.513-1.441-2.3-.421-.733-.806-1.486-1.17-2.246-.185-.385-.359-.775-.529-1.165-.019-.044-.038-.089-.056-.133-.06-.15-.17-.419-.214-.534a49.5,49.5,0,0,1-2.689-10.949c-.019-.131-.035-.264-.051-.394-.014-.113-.045-.362-.052-.435-.053-.476-.1-.95-.138-1.426-.09-1.037-.149-2.078-.188-3.12-.077-2.026-.044-4.056.062-6.081a63.9,63.9,0,0,1,1.877-11.936c1.562-6.4,4.087-14.216,7.571-19.821,3.061-4.923,6.094-9.255,11.044-12.362C187.2,583.7,187.217,583.714,186.371,584.22Z" transform="translate(-35.7 -235.284)" fill="url(#linear-gradient-32)"/>
    <path id="Caminho_79" data-name="Caminho 79" d="M141.03,589.063c-4.908,3.149-10.554,6.348-16.466,7.352-.486.2-.976.4-1.473.574q-.463.161-.933.3c-.1.028-.192.054-.289.08a11.422,11.422,0,0,1-1.331.17l-.067,0-.042-.007a7.456,7.456,0,0,1-.637-.51,4.874,4.874,0,0,0-5.95-.258,4.926,4.926,0,0,0-1.176,6.792c1.91,2.744,5.373,3.791,8.579,3.512a21.054,21.054,0,0,0,8.267-3.06c5.628-3.15,9.707-8.4,14.056-13.022,2.628-2.793,5.367-5.471,8-8.257,1.013-1.07,2.054-2.112,3.1-3.147.717-.71,1.259-1.558,1.988-2.261a.427.427,0,0,0,.124-.478A125.644,125.644,0,0,1,141.03,589.063Z" transform="translate(-10.292 -231.614)" fill="url(#linear-gradient-33)"/>
    <path id="Caminho_80" data-name="Caminho 80" d="M128.676,638.52a5.987,5.987,0,1,1-7.3-4.3A5.986,5.986,0,0,1,128.676,638.52Z" transform="translate(-12.967 -261.634)" fill="url(#linear-gradient-34)"/>
    <path id="Caminho_81" data-name="Caminho 81" d="M708.557,514.111a10.119,10.119,0,1,1-12.332-7.263A10.119,10.119,0,0,1,708.557,514.111Z" transform="translate(-313.12 -194.696)" fill="url(#linear-gradient-35)"/>
    <path id="Caminho_82" data-name="Caminho 82" d="M751.836,266.357c-11.145.684-21.149,6.379-29.832,13.028-4.077,3.122-7.866,6.517-11.647,9.984-4.27,3.916-8.571,7.725-13.1,11.336-4.266,3.4-8.778,6.5-13.139,9.774A126.3,126.3,0,0,0,671.6,321.041c-.426.416.14,1.2.646.847,9.369-6.652,18.634-13.524,28.34-19.681,4.811-3.053,9.7-5.982,14.538-8.988,4.392-2.726,8.708-5.584,13.155-8.217a104.854,104.854,0,0,1,12.381-6.545c.223-.088.447-.174.671-.26.56-.213,1.126-.411,1.693-.6,1.025-.346,2.065-.644,3.114-.908,1.03-.26,2.074-.462,3.122-.626.087-.014.23-.033.362-.051l.365-.033c.564-.05,1.129-.077,1.694-.093a4.832,4.832,0,0,0,4.838-4.688C756.561,268.752,754.429,266.2,751.836,266.357Z" transform="translate(-304.099 -68.611)" fill="#90104f"/>
    <path id="Caminho_83" data-name="Caminho 83" d="M759.112,246.758a23.252,23.252,0,0,0-7.484,2.89,39.4,39.4,0,0,0-6.9,4.887c-3.842,3.316-7.046,7.21-10.632,10.779-1.928,1.921-3.992,3.718-5.947,5.613-2.047,1.984-4.194,3.842-6.327,5.734s-4.237,3.777-6.352,5.672q-1.579,1.413-3.164,2.824a13.836,13.836,0,0,0-1.413,1.572c-.391.476-.565,1.047-1,1.487-.357.362.117,1.037.556.727a9.789,9.789,0,0,1,1.589-.716,12.209,12.209,0,0,0,1.75-1.132c1.142-.8,2.187-1.785,3.261-2.672q3.154-2.605,6.312-5.206c2.095-1.719,4.162-3.482,6.388-5.031s4.478-3.072,6.751-4.56c4.108-2.689,7.993-5.716,12.085-8.433a63,63,0,0,1,6.378-3.843c.569-.287,1.146-.558,1.724-.825q.186-.086.372-.165c-.037.018.472-.19.614-.243,1.176-.437,2.4-.7,3.586-1.081a4.341,4.341,0,0,0,3.07-5.211C763.687,247.366,761.422,246.449,759.112,246.758Z" transform="translate(-324.211 -58.296)" fill="url(#linear-gradient-36)"/>
    <g id="Grupo_5" data-name="Grupo 5" transform="translate(269.191 393.769)">
      <path id="Caminho_84" data-name="Caminho 84" d="M576.6,720.167c.046,0,.088.006.127.007l-.124-.008Z" transform="translate(-523.493 -700.622)" fill="url(#linear-gradient-37)"/>
      <path id="Caminho_85" data-name="Caminho 85" d="M537.782,690.659a16.8,16.8,0,0,0-1.228-2.246,10.94,10.94,0,0,0-.759-1.048c.721.88-.147-.186-.385-.495-.3-.388-.622-.757-.954-1.116a20.593,20.593,0,0,0-4.562-3.627,23.522,23.522,0,0,0-11.508-3.1,37.4,37.4,0,0,0-12.832,2.512c-8.37,2.947-15.773,8.245-21.992,14.512A66.744,66.744,0,0,0,469.1,718.266c-3.351,8.377-5.195,18-3.866,27,.143.963.157,1.911.143.963-.694-44.063,34.333-59.075,42.621-61.494a45.989,45.989,0,0,1,6.407-1.391,19.828,19.828,0,0,1,5.458.171,15.6,15.6,0,0,1,2.651.71c.16.059.317.124.475.188-.022,0,.374.168.4.18.464.215.915.459,1.36.713.378.215.745.451,1.108.694.181.12.357.247.534.374l.107.077.02.016a16.539,16.539,0,0,1,2,1.906c.142.158.278.322.415.484l.14.177c.212.29.414.59.608.893a19.563,19.563,0,0,1,1.295,2.434c.015.034.035.079.057.131.049.133.1.267.144.4.143.406.263.82.374,1.237s.2.852.283,1.281c.035.186.062.371.091.557,0,.055.009.126.017.218a18.227,18.227,0,0,1,0,2.747c-.014.2-.114.962-.126,1.106-.076.4-.166.806-.263,1.205-.246,1.013-.617,1.972-.959,2.953-.049.141-.1.28-.16.419.2-.479.051-.111-.055.137-.027.067-.055.134-.081.2l.078-.2c-.015.036-.029.068-.041.095-.174.38-.37.751-.572,1.119a18.7,18.7,0,0,1-1.206,1.869h0c-.038.047-.074.094-.113.139-.285.346-.586.68-.892,1.008-.533.572-1.1,1.11-1.689,1.627-.244.214-.5.422-.749.626-.154.11-.307.222-.462.33a25.664,25.664,0,0,1-4.128,2.379L520.4,714c-.35.128-.7.241-1.06.347a15.277,15.277,0,0,1-1.74.407c-.179.02-.375.04-.5.048-.345.017-.692.013-1.037,0-.114,0-.228-.013-.342-.021-.236-.04-.576-.1-.76-.146-.248-.064-.489-.145-.729-.23-.056-.029-.112-.057-.167-.088a9.078,9.078,0,0,1-.825-.5l-.188-.166a10.4,10.4,0,0,1-.788-.8c-.048-.053-.095-.107-.142-.163a16.121,16.121,0,0,1-1.3-2.355c-.066-.141-.128-.282-.19-.425-.1-.27-.2-.543-.288-.817a17.031,17.031,0,0,1-.577-2.261c-.011-.063-.02-.126-.03-.189-.014-.2-.024-.4-.03-.6-.009-.3,0-.6.012-.893,0-.114.02-.274.038-.43a10.53,10.53,0,0,1,.279-1.03c.017-.049.038-.107.059-.17.057-.11.114-.22.174-.328.131-.24.466-.712.638-.954.178-.2.362-.4.554-.589.172-.171.353-.332.536-.49l.028-.024c.32-.22.649-.425.981-.625.376-.229.768-.431,1.165-.623l.126-.057.088-.032c.075-.027.151-.052.225-.078l.114-.037q2.076-.856.226-.075a8.206,8.206,0,0,0,1.6-.684c.1-.047.24-.109.362-.161.207-.038.415-.079.628-.125.124-.027.248-.047.374-.07l-.159-.01.162.009c.052-.008.1-.019.154-.029.4-.066.773.068-.03.037.444.019.913.017,1.373-.009.193.023.387.04.58.057.132.032.663.127.874.194l.067.024c.068.035.136.073.2.112.1.057.285.19.339.227.1.092.2.179.312.27.048.041.1.086.143.13s.128.144.182.209c.026.037.05.075.075.113.007.036.013.074.02.112.005.069.011.138.016.208a7.6,7.6,0,0,1-.023.855c-.464,1.29,1.581,1.855,2.04.577-.256.714.063-.029.161-.216.128-.242.23-.5.336-.749a4.106,4.106,0,0,0,.3-1.022,3.959,3.959,0,0,0,.079-3.165,6.2,6.2,0,0,0-2.092-2.837,14.444,14.444,0,0,0-1.211-.892c-.106-.067-.216-.13-.326-.192a6.939,6.939,0,0,0-.854-.359c1.313.459.192.062-.275-.124a9.183,9.183,0,0,0-1.742-.5,7.852,7.852,0,0,0-2.456-.442c-.513-.091-1.042-.123-1.549-.164a4.23,4.23,0,0,0-.689-.026c-.39.046-.779.095-1.169.14q1.994-.227-.236.035c-.156.028-.313.058-.469.09a19.4,19.4,0,0,0-3.884,1.345,14.11,14.11,0,0,0-6.083,5.5,14.716,14.716,0,0,0-2.016,8.744,22.579,22.579,0,0,0,3.888,11.146,14.316,14.316,0,0,0,10.939,6.434c3.7.457,7.556-.779,10.84-2.38a25.311,25.311,0,0,0,13.644-17.78A23.206,23.206,0,0,0,537.782,690.659Z" transform="translate(-464.803 -679.023)" fill="url(#linear-gradient-38)"/>
      <path id="Caminho_86" data-name="Caminho 86" d="M602.9,732.9c-.016.041-.035.087-.057.141l0,0C602.861,733,602.879,732.95,602.9,732.9Z" transform="translate(-537.269 -707.309)" fill="url(#linear-gradient-39)"/>
    </g>
    <path id="Caminho_87" data-name="Caminho 87" d="M496.807,664.132a36.7,36.7,0,0,1-3.557,2.732c-.77.536-1.61,1.1-2.487,1.693s-1.791,1.207-2.71,1.855-1.84,1.336-2.739,2.074c-.448.369-.893.753-1.327,1.151-.216.2-.435.406-.653.62s-.435.432-.65.655a38.138,38.138,0,0,0-4.757,6.124,47.631,47.631,0,0,0-3.571,6.875c-.121.286-.236.569-.35.851l-.163.408q-.078.2-.152.4c-.2.536-.366,1.076-.519,1.613-.306,1.074-.546,2.127-.773,3.1-.114.488-.223.955-.331,1.4l-.162.646-.08.311-.082.3c-.116.4-.25.758-.369,1.084s-.23.622-.316.894a5.315,5.315,0,0,0-.265,1.312,3.047,3.047,0,0,0,.007.478,3.125,3.125,0,0,1-.145-.472,4.289,4.289,0,0,1-.1-.588,7.293,7.293,0,0,1-.029-.81c0-.3.024-.63.045-.976s.041-.711.031-1.07l-.023-.6-.033-.65c-.024-.445-.055-.916-.087-1.414-.063-1-.137-2.094-.151-3.3-.006-.607,0-1.24.045-1.9.01-.165.023-.332.037-.5l.046-.5c.031-.323.065-.649.1-.979a50.045,50.045,0,0,1,1.686-8.393,43,43,0,0,1,3.514-8.544q.281-.512.577-1.013c.2-.334.4-.666.608-1,.419-.661.854-1.3,1.3-1.908.884-1.22,1.8-2.336,2.676-3.35s1.734-1.928,2.519-2.752,1.506-1.558,2.146-2.207c1.283-1.3,2.238-2.261,2.874-2.843a38.453,38.453,0,0,1,3.75-3.024,21.943,21.943,0,0,1,3.274-1.95,9.542,9.542,0,0,1,1.36-.522c.212-.06.418-.112.621-.152s.408-.1.612-.153c.409-.111.81-.24,1.206-.336a3.751,3.751,0,0,1,1.211-.122,2.688,2.688,0,0,1,.644.129,2.461,2.461,0,0,1,.62.306,2.831,2.831,0,0,1,1,1.241,4,4,0,0,1,.277.951,6.975,6.975,0,0,1,.088,1.113,9.99,9.99,0,0,1-.3,2.378,16.148,16.148,0,0,1-2.164,4.843A22.984,22.984,0,0,1,496.807,664.132Z" transform="translate(-198.504 -269.327)" fill="url(#linear-gradient-40)"/>
    <path id="Caminho_88" data-name="Caminho 88" d="M488.658,643.261a13.937,13.937,0,0,1-1.035,1.065c-.471.459-1.047,1.026-1.673,1.7s-1.3,1.444-1.958,2.291a32.636,32.636,0,0,0-1.91,2.717,31.648,31.648,0,0,0-1.6,2.854c-.462.932-.842,1.827-1.136,2.605s-.5,1.443-.641,1.91-.2.737-.2.736-.072-.265-.182-.742-.251-1.175-.373-2.036a28.324,28.324,0,0,1-.26-3.017,31.484,31.484,0,0,1,.651-7.45,29.06,29.06,0,0,1,.981-3.567,23.09,23.09,0,0,1,1.205-2.873,11.234,11.234,0,0,1,1.07-1.767,7.2,7.2,0,0,1,1.972-1.739,5.722,5.722,0,0,1,2.187-.777,3.97,3.97,0,0,1,1.967.217,3.291,3.291,0,0,1,1.436,1.108,4.245,4.245,0,0,1,.728,1.65,5.956,5.956,0,0,1,.1,1.779,6.385,6.385,0,0,1-.406,1.736A6.175,6.175,0,0,1,488.658,643.261Z" transform="translate(-202.367 -262.212)" fill="url(#linear-gradient-41)"/>
  </g>
</svg>
