<svg xmlns="http://www.w3.org/2000/svg" width="65.663" height="65.663" viewBox="0 0 65.663 65.663">
  <g id="vector" transform="translate(65.663 65.663) rotate(180)" opacity="0.287">
    <g id="Grupo_110" data-name="Grupo 110" transform="translate(54.121 12.825)">
      <g id="Grupo_109" data-name="Grupo 109">
        <path id="Caminho_201" data-name="Caminho 201" d="M423.282,100a1.282,1.282,0,1,0,1.283,1.282A1.283,1.283,0,0,0,423.282,100Z" transform="translate(-422 -100)" fill="rgba(67,154,255,0.45)"/>
      </g>
    </g>
    <g id="Grupo_112" data-name="Grupo 112" transform="translate(8.977 12.825)">
      <g id="Grupo_111" data-name="Grupo 111">
        <path id="Caminho_202" data-name="Caminho 202" d="M71.282,100a1.282,1.282,0,1,0,1.282,1.282A1.283,1.283,0,0,0,71.282,100Z" transform="translate(-70 -100)" fill="rgba(67,154,255,0.45)"/>
      </g>
    </g>
    <g id="Grupo_114" data-name="Grupo 114" transform="translate(56.988 17.077)">
      <g id="Grupo_113" data-name="Grupo 113">
        <path id="Caminho_203" data-name="Caminho 203" d="M451.75,144.3h-1.534a29.132,29.132,0,0,0-3.456-10.479,1.283,1.283,0,0,0-2.241,1.248,26.58,26.58,0,0,1,3.11,9.231h-1.01a1.282,1.282,0,0,0-1.282,1.282v5.13a1.282,1.282,0,0,0,1.282,1.282h5.13a1.282,1.282,0,0,0,1.282-1.282v-5.13A1.282,1.282,0,0,0,451.75,144.3Zm-1.283,5.13H447.9v-2.565h2.565Z" transform="translate(-444.357 -133.158)" fill="rgba(67,154,255,0.45)"/>
      </g>
    </g>
    <g id="Grupo_116" data-name="Grupo 116" transform="translate(18.724 12.825)">
      <g id="Grupo_115" data-name="Grupo 115">
        <path id="Caminho_204" data-name="Caminho 204" d="M174.212,124.7c0-.02,0-.04,0-.06s-.006-.054-.01-.081,0-.033-.008-.049c-.006-.031-.014-.062-.022-.093,0-.012-.006-.023-.009-.035-.011-.038-.025-.076-.04-.113l0-.012a1.261,1.261,0,0,0-.06-.125l-12.825-23.469a1.282,1.282,0,0,0-2.251,0l-12.825,23.469a1.265,1.265,0,0,0-.06.125l0,.012c-.015.037-.028.074-.04.113,0,.012-.006.023-.009.035-.008.031-.016.061-.022.093,0,.016,0,.033-.008.049s-.008.053-.01.081,0,.04,0,.06,0,.032,0,.048,0,.017,0,.025,0,.04,0,.06,0,.051.007.076.005.035.008.053.01.055.017.082.008.031.012.046.017.058.027.086c0,.008,0,.016.008.024l4.625,12.257a3.848,3.848,0,0,0,.422,7.077v7.018a1.282,1.282,0,0,0,1.282,1.282H167.8a1.282,1.282,0,0,0,1.283-1.282V144.54a3.848,3.848,0,0,0,.422-7.077l4.626-12.258c0-.008,0-.016.008-.024.01-.028.019-.057.027-.086s.008-.03.012-.046.012-.055.017-.082.006-.035.008-.053.005-.051.007-.076,0-.04,0-.06,0-.017,0-.025S174.213,124.72,174.212,124.7Zm-14.1-1.234a1.282,1.282,0,1,1-1.283,1.282A1.284,1.284,0,0,1,160.107,123.47Zm6.412,26.8H153.695v-5.515H166.52Zm2.189-8.456a1.274,1.274,0,0,1-.907.376h-15.39a1.282,1.282,0,0,1,0-2.565h15.394a1.282,1.282,0,0,1,.9,2.189Zm-1.793-4.754H153.3l-4.162-11.029h3.275a1.282,1.282,0,0,0,0-2.565h-2.968l9.38-17.166v14.821a3.847,3.847,0,1,0,2.565,0V106.3l9.38,17.166H167.8a1.282,1.282,0,0,0,0,2.565h3.275Z" transform="translate(-146 -100)" fill="rgba(67,154,255,0.45)"/>
      </g>
    </g>
    <g id="Grupo_118" data-name="Grupo 118" transform="translate(0 17.077)">
      <g id="Grupo_117" data-name="Grupo 117">
        <path id="Caminho_205" data-name="Caminho 205" d="M8.016,133.32a1.282,1.282,0,0,0-1.744.5,29.132,29.132,0,0,0-3.455,10.479H1.282A1.282,1.282,0,0,0,0,145.577v5.13a1.282,1.282,0,0,0,1.282,1.283h5.13a1.282,1.282,0,0,0,1.282-1.283v-5.13a1.282,1.282,0,0,0-1.282-1.282H5.4a26.583,26.583,0,0,1,3.11-9.231A1.282,1.282,0,0,0,8.016,133.32ZM5.13,149.425H2.565V146.86H5.13Z" transform="translate(0 -133.157)" fill="rgba(67,154,255,0.45)"/>
      </g>
    </g>
    <g id="Grupo_120" data-name="Grupo 120">
      <g id="Grupo_119" data-name="Grupo 119">
        <path id="Caminho_206" data-name="Caminho 206" d="M61.816,0a3.854,3.854,0,0,0-3.627,2.565H36.679V1.282A1.282,1.282,0,0,0,35.4,0h-5.13a1.282,1.282,0,0,0-1.282,1.282V2.565H7.474a3.847,3.847,0,1,0,0,2.565H20.368A28.393,28.393,0,0,0,13.059,9.5a1.282,1.282,0,1,0,1.653,1.961A28.917,28.917,0,0,1,28.984,5.4V6.412a1.282,1.282,0,0,0,1.282,1.282H35.4a1.282,1.282,0,0,0,1.282-1.282V5.4a28.918,28.918,0,0,1,14.272,6.061A1.282,1.282,0,0,0,52.6,9.5,28.394,28.394,0,0,0,45.3,5.13H58.189A3.847,3.847,0,1,0,61.816,0ZM3.847,5.13A1.282,1.282,0,1,1,5.13,3.847,1.284,1.284,0,0,1,3.847,5.13ZM34.114,3.847V5.13H31.549V2.565h2.565Zm27.7,1.282A1.282,1.282,0,1,1,63.1,3.847,1.284,1.284,0,0,1,61.816,5.13Z" fill="rgba(67,154,255,0.45)"/>
      </g>
    </g>
  </g>
</svg>
