<svg id="foreign" xmlns="http://www.w3.org/2000/svg" width="25" height="25" viewBox="0 0 25 25">
  <g id="Grupo_143" data-name="Grupo 143" transform="translate(9.091)">
    <g id="Grupo_142" data-name="Grupo 142">
      <path id="Caminho_218" data-name="Caminho 218" d="M200.955,0h-9.091a1.136,1.136,0,0,0,0,2.273h6.348l-11.7,11.7a1.136,1.136,0,1,0,1.607,1.607l11.7-11.7v6.347a1.136,1.136,0,0,0,2.273,0V1.136A1.136,1.136,0,0,0,200.955,0Z" transform="translate(-186.182)" fill="#e13242"/>
    </g>
  </g>
  <g id="Grupo_145" data-name="Grupo 145" transform="translate(0 4.545)">
    <g id="Grupo_144" data-name="Grupo 144">
      <path id="Caminho_219" data-name="Caminho 219" d="M19.318,99.909a1.136,1.136,0,0,0-1.136,1.136v10.227H2.273V95.364H12.5a1.136,1.136,0,1,0,0-2.273H1.136A1.136,1.136,0,0,0,0,94.227v18.182a1.136,1.136,0,0,0,1.136,1.136H19.318a1.136,1.136,0,0,0,1.136-1.136V101.046A1.136,1.136,0,0,0,19.318,99.909Z" transform="translate(0 -93.091)" fill="#e13242"/>
    </g>
  </g>
</svg>
