<svg xmlns="http://www.w3.org/2000/svg" width="450.275" height="123.197" viewBox="0 0 450.275 123.197">
  <g id="Grupo_187" data-name="Grupo 187" transform="translate(-1659 -1449)">
    <g id="Grupo_180" data-name="Grupo 180" transform="translate(1659 1449)">
      <path id="_002-twitter" data-name="002-twitter" d="M58.628,6.409c-3.688.17-3.607.156-4.024.191L56.787.362S49.97,2.87,48.241,3.319a13.679,13.679,0,0,0-16.11-1.3A11.157,11.157,0,0,0,26.769,13.5,29.759,29.759,0,0,1,7.49,2.642L5.873.7,4.664,2.919a13.412,13.412,0,0,0-1.429,9.029,12.972,12.972,0,0,0,1.257,3.525L3.1,14.935,2.94,17.253a12.37,12.37,0,0,0,2.1,7.353,13.075,13.075,0,0,0,1.634,2.015l-.717-.11.875,2.656a12.914,12.914,0,0,0,6.638,7.692c-3.1,1.314-5.6,2.152-9.707,3.5L0,41.6l3.474,1.9A36.461,36.461,0,0,0,14.1,47.367c10.279,1.612,21.852.3,29.643-6.717,6.562-5.91,8.715-14.317,8.268-23.066a5.466,5.466,0,0,1,1.022-3.559C54.49,12.083,58.619,6.422,58.628,6.409Zm-8.34,5.559a8.9,8.9,0,0,0-1.7,5.792c.451,8.825-1.95,15.668-7.137,20.34-6.059,5.457-15.833,7.6-26.814,5.877a26.591,26.591,0,0,1-5.745-1.707,91.1,91.1,0,0,0,10.406-4.277l6-2.84-6.624-.424a9.369,9.369,0,0,1-7.439-4.238,11.882,11.882,0,0,0,2.522-.42l6.318-1.76L13.7,26.75a9.489,9.489,0,0,1-5.8-4.031,9.718,9.718,0,0,1-1.256-2.771,15.9,15.9,0,0,0,2.584.412l5.9.583L10.458,17.3A9.834,9.834,0,0,1,6.731,6.936C17.237,17.833,29.573,17.014,30.814,17.3a20.339,20.339,0,0,0-.352-2.914c-1.59-5.621,1.895-8.475,3.467-9.441a10.26,10.26,0,0,1,12.1,1,3.074,3.074,0,0,0,2.821.755A23.74,23.74,0,0,0,51.178,6L49.7,10.228h1.891C51.231,10.708,50.8,11.281,50.288,11.968Zm0,0" transform="translate(69.296 3)" fill="#fff"/>
      <g id="_004-instagram" data-name="004-instagram" transform="translate(206.593 4)">
        <path id="Caminho_209" data-name="Caminho 209" d="M32.864,0H12.2A12.212,12.212,0,0,0,0,12.2V32.865a12.212,12.212,0,0,0,12.2,12.2H32.865a12.212,12.212,0,0,0,12.2-12.2V12.2A12.212,12.212,0,0,0,32.864,0Zm9.556,32.865a9.567,9.567,0,0,1-9.556,9.556H12.2a9.567,9.567,0,0,1-9.556-9.556V12.2A9.567,9.567,0,0,1,12.2,2.642H32.865A9.567,9.567,0,0,1,42.421,12.2Zm0,0" fill="#fff"/>
        <path id="Caminho_210" data-name="Caminho 210" d="M128.325,116a12.321,12.321,0,1,0,12.321,12.321A12.335,12.335,0,0,0,128.325,116Zm0,22a9.68,9.68,0,1,1,9.68-9.68A9.691,9.691,0,0,1,128.325,138Zm0,0" transform="translate(-105.794 -105.794)" fill="#fff"/>
        <path id="Caminho_211" data-name="Caminho 211" d="M361.617,66.285a3.641,3.641,0,1,0,3.641,3.641A3.645,3.645,0,0,0,361.617,66.285Zm0,4.64a1,1,0,1,1,1-1A1,1,0,0,1,361.617,70.925Zm0,0" transform="translate(-326.47 -60.451)" fill="#fff"/>
      </g>
      <g id="shutterstock" transform="translate(336.853 3)">
        <path id="Caminho_213" data-name="Caminho 213" d="M43.346,0H3.024A3.028,3.028,0,0,0,0,3.024V43.346A3.028,3.028,0,0,0,3.024,46.37H43.346a3.028,3.028,0,0,0,3.024-3.024V3.024A3.028,3.028,0,0,0,43.346,0Zm1.008,43.346a1.009,1.009,0,0,1-1.008,1.008H3.024a1.009,1.009,0,0,1-1.008-1.008V3.024A1.009,1.009,0,0,1,3.024,2.016H43.346a1.009,1.009,0,0,1,1.008,1.008Zm0,0" transform="translate(0)" fill="#fff"/>
        <path id="Caminho_214" data-name="Caminho 214" d="M82.145,71.056V65.008A1.008,1.008,0,0,0,81.137,64H67.024A3.028,3.028,0,0,0,64,67.024V81.137a1.008,1.008,0,0,0,1.008,1.008h6.048a1.008,1.008,0,0,0,1.008-1.008V72.064h9.072A1.008,1.008,0,0,0,82.145,71.056Zm-2.016-1.008H71.056a1.008,1.008,0,0,0-1.008,1.008v9.072H66.016v-13.1a1.009,1.009,0,0,1,1.008-1.008h13.1Zm0,0" transform="translate(-55.936 -55.936)" fill="#fff"/>
        <path id="Caminho_215" data-name="Caminho 215" d="M177.121,160h-6.048a1.008,1.008,0,0,0-1.008,1.008v9.072h-9.072a1.008,1.008,0,0,0-1.008,1.008v6.048a1.008,1.008,0,0,0,1.008,1.008H175.1a3.028,3.028,0,0,0,3.024-3.024V161.008A1.008,1.008,0,0,0,177.121,160Zm-1.008,15.121a1.009,1.009,0,0,1-1.008,1.008H162V172.1h9.072a1.008,1.008,0,0,0,1.008-1.008v-9.072h4.032Zm0,0" transform="translate(-139.826 -139.839)" fill="#fff"/>
      </g>
      <g id="github-logo">
        <path id="Caminho_212" data-name="Caminho 212" d="M50.873,18.944a27.147,27.147,0,0,0-9.922-9.923A26.668,26.668,0,0,0,27.265,5.365,26.671,26.671,0,0,0,13.579,9.022a27.144,27.144,0,0,0-9.923,9.923A26.67,26.67,0,0,0,0,32.629,26.5,26.5,0,0,0,5.2,48.658,26.7,26.7,0,0,0,18.638,58.51a1.589,1.589,0,0,0,1.42-.248,1.388,1.388,0,0,0,.461-1.065q0-.106-.018-1.917t-.018-3.159l-.817.141a10.416,10.416,0,0,1-1.97.124,15.012,15.012,0,0,1-2.467-.249,5.513,5.513,0,0,1-2.379-1.064,4.5,4.5,0,0,1-1.562-2.183l-.355-.817a8.871,8.871,0,0,0-1.118-1.81,4.284,4.284,0,0,0-1.544-1.349l-.249-.178a2.606,2.606,0,0,1-.461-.426,1.947,1.947,0,0,1-.319-.5q-.107-.249.177-.409a2.3,2.3,0,0,1,1.03-.159l.71.106a5.182,5.182,0,0,1,1.757.852,5.73,5.73,0,0,1,1.722,1.846,6.258,6.258,0,0,0,1.97,2.219,4.18,4.18,0,0,0,2.325.763,10.1,10.1,0,0,0,2.024-.177,7.061,7.061,0,0,0,1.6-.533,5.752,5.752,0,0,1,1.739-3.657,24.309,24.309,0,0,1-3.639-.639,14.489,14.489,0,0,1-3.337-1.385,9.557,9.557,0,0,1-2.858-2.378A11.43,11.43,0,0,1,10.6,36.534a17.726,17.726,0,0,1-.728-5.325,10.355,10.355,0,0,1,2.8-7.314,9.544,9.544,0,0,1,.248-7.242,4.975,4.975,0,0,1,3.053.479A21.346,21.346,0,0,1,18.94,18.5q.941.567,1.509.958a25.639,25.639,0,0,1,13.633,0l1.349-.852A19.106,19.106,0,0,1,38.7,17.044a4.652,4.652,0,0,1,2.877-.39,9.452,9.452,0,0,1,.283,7.242,10.357,10.357,0,0,1,2.805,7.314,17.925,17.925,0,0,1-.728,5.343,10.986,10.986,0,0,1-1.881,3.728,9.925,9.925,0,0,1-2.876,2.361,14.516,14.516,0,0,1-3.337,1.385,24.283,24.283,0,0,1-3.639.64q1.845,1.6,1.846,5.041V57.2a1.414,1.414,0,0,0,.444,1.065,1.542,1.542,0,0,0,1.4.248A26.7,26.7,0,0,0,49.33,48.657a26.5,26.5,0,0,0,5.2-16.029A26.692,26.692,0,0,0,50.873,18.944Z" transform="translate(0 -5.365)" fill="#fff"/>
      </g>
      <path id="linkedin" d="M14.083,37.229H7.922V17.338h6.161ZM14.7,11a3.608,3.608,0,1,0-3.606,3.609A3.609,3.609,0,0,0,14.7,11ZM37.141,26.286c0-5.34-1.128-9.3-7.366-9.3a6.393,6.393,0,0,0-5.83,3.058h-.006V17.338H17.955V37.229h5.985V27.353c0-2.586.658-5.092,3.864-5.092,3.162,0,3.265,2.958,3.265,5.256v9.712h6.073Zm7.921,13.5V5.281A5.287,5.287,0,0,0,39.782,0H5.281A5.287,5.287,0,0,0,0,5.281v34.5a5.287,5.287,0,0,0,5.281,5.281h34.5A5.287,5.287,0,0,0,45.062,39.782ZM39.782,3.52a1.762,1.762,0,0,1,1.76,1.76v34.5a1.762,1.762,0,0,1-1.76,1.76H5.281a1.762,1.762,0,0,1-1.76-1.76V5.281a1.762,1.762,0,0,1,1.76-1.76Zm0,0" transform="translate(142.234 4)" fill="#fff"/>
      <path id="dribbble" d="M34.419,48.764c.042-.013.082-.029.124-.044C60.251,38.506,53.14,0,25.256,0a25.245,25.245,0,1,0,9.164,48.764Zm-23.3-6.548c1.793-3.014,7.6-11.517,17.5-14.45a53.192,53.192,0,0,1,3.666,18.426,21.958,21.958,0,0,1-21.166-3.976Zm24.271,2.658a56.667,56.667,0,0,0-3.6-17.82,28.6,28.6,0,0,1,15.206,2.077A22.149,22.149,0,0,1,35.385,44.875ZM47.323,25.868a30.625,30.625,0,0,0-16.751-1.755c-.747-1.684-1.532-3.3-2.363-4.792a42.1,42.1,0,0,0,13.758-8.482A21.815,21.815,0,0,1,47.323,25.868Zm-7.6-17.277A40.512,40.512,0,0,1,26.55,16.526,59.06,59.06,0,0,0,16.873,4.82,21.968,21.968,0,0,1,39.725,8.591ZM13.855,6.362a55.557,55.557,0,0,1,9.572,11.275,69.488,69.488,0,0,1-19.8,3.1A22.14,22.14,0,0,1,13.855,6.362ZM3.224,23.909A72.674,72.674,0,0,0,25.131,20.44c.791,1.387,1.543,2.9,2.265,4.468C17.431,28.082,11.2,36.275,8.818,39.975A21.811,21.811,0,0,1,3.224,23.909Z" transform="translate(269.013 1)" fill="#fff"/>
      <g id="XMLID_468_" transform="translate(400.601 2)">
        <path id="XMLID_469_" d="M104.6,95.346c-.1-.046-3.718-1.83-4.362-2.061A2.5,2.5,0,0,0,99.4,93.1a1.435,1.435,0,0,0-1.22.722c-.362.538-1.457,1.818-1.8,2.2-.044.05-.1.111-.141.111s-.593-.231-.763-.3c-3.885-1.687-6.833-5.745-7.238-6.43a.4.4,0,0,1-.061-.143A1.167,1.167,0,0,1,88.391,89c.2-.2.411-.452.618-.7.1-.118.2-.236.292-.347a3.9,3.9,0,0,0,.588-.934l.081-.163a1.689,1.689,0,0,0-.049-1.59c-.086-.171-1.615-3.862-1.777-4.249-.391-.936-.908-1.371-1.625-1.371-.067,0,0,0-.279.012a8.68,8.68,0,0,0-3.011.774c-.868.548-2.338,2.293-2.338,5.362A11.558,11.558,0,0,0,83.4,92.16c.019.025.053.076.1.149,2.883,4.21,6.476,7.33,10.119,8.785,3.507,1.4,5.168,1.563,6.112,1.563h0a9.55,9.55,0,0,0,.994-.059l.178-.017c1.212-.107,3.874-1.487,4.48-3.17a5.011,5.011,0,0,0,.285-3.3A2.286,2.286,0,0,0,104.6,95.346Z" transform="translate(-67.844 -66.802)" fill="#fff"/>
        <path id="XMLID_470_" d="M25.278,0A24.335,24.335,0,0,0,.88,24.215,24.037,24.037,0,0,0,4.225,36.461L.034,48.822a.645.645,0,0,0,.806.822l12.89-4.1A24.437,24.437,0,0,0,49.675,24.215,24.334,24.334,0,0,0,25.278,0Zm0,43.384a19.329,19.329,0,0,1-10.634-3.17.645.645,0,0,0-.549-.075L7.638,42.19l2.084-6.149a.645.645,0,0,0-.09-.588A18.908,18.908,0,0,1,5.953,24.215,19.325,19.325,0,1,1,25.278,43.384Z" transform="translate(0)" fill="#fff"/>
      </g>
    </g>
    <g id="Grupo_184" data-name="Grupo 184" transform="translate(1659 1449)">
      <path id="_002-twitter-2" data-name="002-twitter" d="M58.628,6.409c-3.688.17-3.607.156-4.024.191L56.787.362S49.97,2.87,48.241,3.319a13.679,13.679,0,0,0-16.11-1.3A11.157,11.157,0,0,0,26.769,13.5,29.759,29.759,0,0,1,7.49,2.642L5.873.7,4.664,2.919a13.412,13.412,0,0,0-1.429,9.029,12.972,12.972,0,0,0,1.257,3.525L3.1,14.935,2.94,17.253a12.37,12.37,0,0,0,2.1,7.353,13.075,13.075,0,0,0,1.634,2.015l-.717-.11.875,2.656a12.914,12.914,0,0,0,6.638,7.692c-3.1,1.314-5.6,2.152-9.707,3.5L0,41.6l3.474,1.9A36.461,36.461,0,0,0,14.1,47.367c10.279,1.612,21.852.3,29.643-6.717,6.562-5.91,8.715-14.317,8.268-23.066a5.466,5.466,0,0,1,1.022-3.559C54.49,12.083,58.619,6.422,58.628,6.409Zm-8.34,5.559a8.9,8.9,0,0,0-1.7,5.792c.451,8.825-1.95,15.668-7.137,20.34-6.059,5.457-15.833,7.6-26.814,5.877a26.591,26.591,0,0,1-5.745-1.707,91.1,91.1,0,0,0,10.406-4.277l6-2.84-6.624-.424a9.369,9.369,0,0,1-7.439-4.238,11.882,11.882,0,0,0,2.522-.42l6.318-1.76L13.7,26.75a9.489,9.489,0,0,1-5.8-4.031,9.718,9.718,0,0,1-1.256-2.771,15.9,15.9,0,0,0,2.584.412l5.9.583L10.458,17.3A9.834,9.834,0,0,1,6.731,6.936C17.237,17.833,29.573,17.014,30.814,17.3a20.339,20.339,0,0,0-.352-2.914c-1.59-5.621,1.895-8.475,3.467-9.441a10.26,10.26,0,0,1,12.1,1,3.074,3.074,0,0,0,2.821.755A23.74,23.74,0,0,0,51.178,6L49.7,10.228h1.891C51.231,10.708,50.8,11.281,50.288,11.968Zm0,0" transform="translate(69.296 3)" fill="#fff"/>
      <g id="_004-instagram-2" data-name="004-instagram" transform="translate(206.593 4)">
        <path id="Caminho_209-2" data-name="Caminho 209" d="M32.864,0H12.2A12.212,12.212,0,0,0,0,12.2V32.865a12.212,12.212,0,0,0,12.2,12.2H32.865a12.212,12.212,0,0,0,12.2-12.2V12.2A12.212,12.212,0,0,0,32.864,0Zm9.556,32.865a9.567,9.567,0,0,1-9.556,9.556H12.2a9.567,9.567,0,0,1-9.556-9.556V12.2A9.567,9.567,0,0,1,12.2,2.642H32.865A9.567,9.567,0,0,1,42.421,12.2Zm0,0" fill="#fff"/>
        <path id="Caminho_210-2" data-name="Caminho 210" d="M128.325,116a12.321,12.321,0,1,0,12.321,12.321A12.335,12.335,0,0,0,128.325,116Zm0,22a9.68,9.68,0,1,1,9.68-9.68A9.691,9.691,0,0,1,128.325,138Zm0,0" transform="translate(-105.794 -105.794)" fill="#fff"/>
        <path id="Caminho_211-2" data-name="Caminho 211" d="M361.617,66.285a3.641,3.641,0,1,0,3.641,3.641A3.645,3.645,0,0,0,361.617,66.285Zm0,4.64a1,1,0,1,1,1-1A1,1,0,0,1,361.617,70.925Zm0,0" transform="translate(-326.47 -60.451)" fill="#fff"/>
      </g>
      <g id="shutterstock-2" data-name="shutterstock" transform="translate(336.853 3)">
        <path id="Caminho_213-2" data-name="Caminho 213" d="M43.346,0H3.024A3.028,3.028,0,0,0,0,3.024V43.346A3.028,3.028,0,0,0,3.024,46.37H43.346a3.028,3.028,0,0,0,3.024-3.024V3.024A3.028,3.028,0,0,0,43.346,0Zm1.008,43.346a1.009,1.009,0,0,1-1.008,1.008H3.024a1.009,1.009,0,0,1-1.008-1.008V3.024A1.009,1.009,0,0,1,3.024,2.016H43.346a1.009,1.009,0,0,1,1.008,1.008Zm0,0" transform="translate(0)" fill="#fff"/>
        <path id="Caminho_214-2" data-name="Caminho 214" d="M82.145,71.056V65.008A1.008,1.008,0,0,0,81.137,64H67.024A3.028,3.028,0,0,0,64,67.024V81.137a1.008,1.008,0,0,0,1.008,1.008h6.048a1.008,1.008,0,0,0,1.008-1.008V72.064h9.072A1.008,1.008,0,0,0,82.145,71.056Zm-2.016-1.008H71.056a1.008,1.008,0,0,0-1.008,1.008v9.072H66.016v-13.1a1.009,1.009,0,0,1,1.008-1.008h13.1Zm0,0" transform="translate(-55.936 -55.936)" fill="#fff"/>
        <path id="Caminho_215-2" data-name="Caminho 215" d="M177.121,160h-6.048a1.008,1.008,0,0,0-1.008,1.008v9.072h-9.072a1.008,1.008,0,0,0-1.008,1.008v6.048a1.008,1.008,0,0,0,1.008,1.008H175.1a3.028,3.028,0,0,0,3.024-3.024V161.008A1.008,1.008,0,0,0,177.121,160Zm-1.008,15.121a1.009,1.009,0,0,1-1.008,1.008H162V172.1h9.072a1.008,1.008,0,0,0,1.008-1.008v-9.072h4.032Zm0,0" transform="translate(-139.826 -139.839)" fill="#fff"/>
      </g>
      <g id="github-logo-2" data-name="github-logo">
        <path id="Caminho_212-2" data-name="Caminho 212" d="M50.873,18.944a27.147,27.147,0,0,0-9.922-9.923A26.668,26.668,0,0,0,27.265,5.365,26.671,26.671,0,0,0,13.579,9.022a27.144,27.144,0,0,0-9.923,9.923A26.67,26.67,0,0,0,0,32.629,26.5,26.5,0,0,0,5.2,48.658,26.7,26.7,0,0,0,18.638,58.51a1.589,1.589,0,0,0,1.42-.248,1.388,1.388,0,0,0,.461-1.065q0-.106-.018-1.917t-.018-3.159l-.817.141a10.416,10.416,0,0,1-1.97.124,15.012,15.012,0,0,1-2.467-.249,5.513,5.513,0,0,1-2.379-1.064,4.5,4.5,0,0,1-1.562-2.183l-.355-.817a8.871,8.871,0,0,0-1.118-1.81,4.284,4.284,0,0,0-1.544-1.349l-.249-.178a2.606,2.606,0,0,1-.461-.426,1.947,1.947,0,0,1-.319-.5q-.107-.249.177-.409a2.3,2.3,0,0,1,1.03-.159l.71.106a5.182,5.182,0,0,1,1.757.852,5.73,5.73,0,0,1,1.722,1.846,6.258,6.258,0,0,0,1.97,2.219,4.18,4.18,0,0,0,2.325.763,10.1,10.1,0,0,0,2.024-.177,7.061,7.061,0,0,0,1.6-.533,5.752,5.752,0,0,1,1.739-3.657,24.309,24.309,0,0,1-3.639-.639,14.489,14.489,0,0,1-3.337-1.385,9.557,9.557,0,0,1-2.858-2.378A11.43,11.43,0,0,1,10.6,36.534a17.726,17.726,0,0,1-.728-5.325,10.355,10.355,0,0,1,2.8-7.314,9.544,9.544,0,0,1,.248-7.242,4.975,4.975,0,0,1,3.053.479A21.346,21.346,0,0,1,18.94,18.5q.941.567,1.509.958a25.639,25.639,0,0,1,13.633,0l1.349-.852A19.106,19.106,0,0,1,38.7,17.044a4.652,4.652,0,0,1,2.877-.39,9.452,9.452,0,0,1,.283,7.242,10.357,10.357,0,0,1,2.805,7.314,17.925,17.925,0,0,1-.728,5.343,10.986,10.986,0,0,1-1.881,3.728,9.925,9.925,0,0,1-2.876,2.361,14.516,14.516,0,0,1-3.337,1.385,24.283,24.283,0,0,1-3.639.64q1.845,1.6,1.846,5.041V57.2a1.414,1.414,0,0,0,.444,1.065,1.542,1.542,0,0,0,1.4.248A26.7,26.7,0,0,0,49.33,48.657a26.5,26.5,0,0,0,5.2-16.029A26.692,26.692,0,0,0,50.873,18.944Z" transform="translate(0 -5.365)" fill="#fff"/>
      </g>
      <path id="linkedin-2" data-name="linkedin" d="M14.083,37.229H7.922V17.338h6.161ZM14.7,11a3.608,3.608,0,1,0-3.606,3.609A3.609,3.609,0,0,0,14.7,11ZM37.141,26.286c0-5.34-1.128-9.3-7.366-9.3a6.393,6.393,0,0,0-5.83,3.058h-.006V17.338H17.955V37.229h5.985V27.353c0-2.586.658-5.092,3.864-5.092,3.162,0,3.265,2.958,3.265,5.256v9.712h6.073Zm7.921,13.5V5.281A5.287,5.287,0,0,0,39.782,0H5.281A5.287,5.287,0,0,0,0,5.281v34.5a5.287,5.287,0,0,0,5.281,5.281h34.5A5.287,5.287,0,0,0,45.062,39.782ZM39.782,3.52a1.762,1.762,0,0,1,1.76,1.76v34.5a1.762,1.762,0,0,1-1.76,1.76H5.281a1.762,1.762,0,0,1-1.76-1.76V5.281a1.762,1.762,0,0,1,1.76-1.76Zm0,0" transform="translate(142.234 4)" fill="#fff"/>
      <path id="dribbble-2" data-name="dribbble" d="M34.419,48.764c.042-.013.082-.029.124-.044C60.251,38.506,53.14,0,25.256,0a25.245,25.245,0,1,0,9.164,48.764Zm-23.3-6.548c1.793-3.014,7.6-11.517,17.5-14.45a53.192,53.192,0,0,1,3.666,18.426,21.958,21.958,0,0,1-21.166-3.976Zm24.271,2.658a56.667,56.667,0,0,0-3.6-17.82,28.6,28.6,0,0,1,15.206,2.077A22.149,22.149,0,0,1,35.385,44.875ZM47.323,25.868a30.625,30.625,0,0,0-16.751-1.755c-.747-1.684-1.532-3.3-2.363-4.792a42.1,42.1,0,0,0,13.758-8.482A21.815,21.815,0,0,1,47.323,25.868Zm-7.6-17.277A40.512,40.512,0,0,1,26.55,16.526,59.06,59.06,0,0,0,16.873,4.82,21.968,21.968,0,0,1,39.725,8.591ZM13.855,6.362a55.557,55.557,0,0,1,9.572,11.275,69.488,69.488,0,0,1-19.8,3.1A22.14,22.14,0,0,1,13.855,6.362ZM3.224,23.909A72.674,72.674,0,0,0,25.131,20.44c.791,1.387,1.543,2.9,2.265,4.468C17.431,28.082,11.2,36.275,8.818,39.975A21.811,21.811,0,0,1,3.224,23.909Z" transform="translate(269.013 1)" fill="#fff"/>
      <g id="XMLID_468_2" data-name="XMLID_468_" transform="translate(400.601 2)">
        <path id="XMLID_469_2" data-name="XMLID_469_" d="M104.6,95.346c-.1-.046-3.718-1.83-4.362-2.061A2.5,2.5,0,0,0,99.4,93.1a1.435,1.435,0,0,0-1.22.722c-.362.538-1.457,1.818-1.8,2.2-.044.05-.1.111-.141.111s-.593-.231-.763-.3c-3.885-1.687-6.833-5.745-7.238-6.43a.4.4,0,0,1-.061-.143A1.167,1.167,0,0,1,88.391,89c.2-.2.411-.452.618-.7.1-.118.2-.236.292-.347a3.9,3.9,0,0,0,.588-.934l.081-.163a1.689,1.689,0,0,0-.049-1.59c-.086-.171-1.615-3.862-1.777-4.249-.391-.936-.908-1.371-1.625-1.371-.067,0,0,0-.279.012a8.68,8.68,0,0,0-3.011.774c-.868.548-2.338,2.293-2.338,5.362A11.558,11.558,0,0,0,83.4,92.16c.019.025.053.076.1.149,2.883,4.21,6.476,7.33,10.119,8.785,3.507,1.4,5.168,1.563,6.112,1.563h0a9.55,9.55,0,0,0,.994-.059l.178-.017c1.212-.107,3.874-1.487,4.48-3.17a5.011,5.011,0,0,0,.285-3.3A2.286,2.286,0,0,0,104.6,95.346Z" transform="translate(-67.844 -66.802)" fill="#fff"/>
        <path id="XMLID_470_2" data-name="XMLID_470_" d="M25.278,0A24.335,24.335,0,0,0,.88,24.215,24.037,24.037,0,0,0,4.225,36.461L.034,48.822a.645.645,0,0,0,.806.822l12.89-4.1A24.437,24.437,0,0,0,49.675,24.215,24.334,24.334,0,0,0,25.278,0Zm0,43.384a19.329,19.329,0,0,1-10.634-3.17.645.645,0,0,0-.549-.075L7.638,42.19l2.084-6.149a.645.645,0,0,0-.09-.588A18.908,18.908,0,0,1,5.953,24.215,19.325,19.325,0,1,1,25.278,43.384Z" transform="translate(0)" fill="#fff"/>
      </g>
    </g>
    <g id="Grupo_185" data-name="Grupo 185" transform="translate(1659 1519)">
      <path id="_002-twitter-3" data-name="002-twitter" d="M58.628,6.409c-3.688.17-3.607.156-4.024.191L56.787.362S49.97,2.87,48.241,3.319a13.679,13.679,0,0,0-16.11-1.3A11.157,11.157,0,0,0,26.769,13.5,29.759,29.759,0,0,1,7.49,2.642L5.873.7,4.664,2.919a13.412,13.412,0,0,0-1.429,9.029,12.972,12.972,0,0,0,1.257,3.525L3.1,14.935,2.94,17.253a12.37,12.37,0,0,0,2.1,7.353,13.075,13.075,0,0,0,1.634,2.015l-.717-.11.875,2.656a12.914,12.914,0,0,0,6.638,7.692c-3.1,1.314-5.6,2.152-9.707,3.5L0,41.6l3.474,1.9A36.461,36.461,0,0,0,14.1,47.367c10.279,1.612,21.852.3,29.643-6.717,6.562-5.91,8.715-14.317,8.268-23.066a5.466,5.466,0,0,1,1.022-3.559C54.49,12.083,58.619,6.422,58.628,6.409Zm-8.34,5.559a8.9,8.9,0,0,0-1.7,5.792c.451,8.825-1.95,15.668-7.137,20.34-6.059,5.457-15.833,7.6-26.814,5.877a26.591,26.591,0,0,1-5.745-1.707,91.1,91.1,0,0,0,10.406-4.277l6-2.84-6.624-.424a9.369,9.369,0,0,1-7.439-4.238,11.882,11.882,0,0,0,2.522-.42l6.318-1.76L13.7,26.75a9.489,9.489,0,0,1-5.8-4.031,9.718,9.718,0,0,1-1.256-2.771,15.9,15.9,0,0,0,2.584.412l5.9.583L10.458,17.3A9.834,9.834,0,0,1,6.731,6.936C17.237,17.833,29.573,17.014,30.814,17.3a20.339,20.339,0,0,0-.352-2.914c-1.59-5.621,1.895-8.475,3.467-9.441a10.26,10.26,0,0,1,12.1,1,3.074,3.074,0,0,0,2.821.755A23.74,23.74,0,0,0,51.178,6L49.7,10.228h1.891C51.231,10.708,50.8,11.281,50.288,11.968Zm0,0" transform="translate(69.296 3)" fill="#f82828"/>
      <g id="_004-instagram-3" data-name="004-instagram" transform="translate(206.593 4)">
        <path id="Caminho_209-3" data-name="Caminho 209" d="M32.864,0H12.2A12.212,12.212,0,0,0,0,12.2V32.865a12.212,12.212,0,0,0,12.2,12.2H32.865a12.212,12.212,0,0,0,12.2-12.2V12.2A12.212,12.212,0,0,0,32.864,0Zm9.556,32.865a9.567,9.567,0,0,1-9.556,9.556H12.2a9.567,9.567,0,0,1-9.556-9.556V12.2A9.567,9.567,0,0,1,12.2,2.642H32.865A9.567,9.567,0,0,1,42.421,12.2Zm0,0" fill="#f82828"/>
        <path id="Caminho_210-3" data-name="Caminho 210" d="M128.325,116a12.321,12.321,0,1,0,12.321,12.321A12.335,12.335,0,0,0,128.325,116Zm0,22a9.68,9.68,0,1,1,9.68-9.68A9.691,9.691,0,0,1,128.325,138Zm0,0" transform="translate(-105.794 -105.794)" fill="#f82828"/>
        <path id="Caminho_211-3" data-name="Caminho 211" d="M361.617,66.285a3.641,3.641,0,1,0,3.641,3.641A3.645,3.645,0,0,0,361.617,66.285Zm0,4.64a1,1,0,1,1,1-1A1,1,0,0,1,361.617,70.925Zm0,0" transform="translate(-326.47 -60.451)" fill="#f82828"/>
      </g>
      <g id="shutterstock-3" data-name="shutterstock" transform="translate(336.853 3)">
        <path id="Caminho_213-3" data-name="Caminho 213" d="M43.346,0H3.024A3.028,3.028,0,0,0,0,3.024V43.346A3.028,3.028,0,0,0,3.024,46.37H43.346a3.028,3.028,0,0,0,3.024-3.024V3.024A3.028,3.028,0,0,0,43.346,0Zm1.008,43.346a1.009,1.009,0,0,1-1.008,1.008H3.024a1.009,1.009,0,0,1-1.008-1.008V3.024A1.009,1.009,0,0,1,3.024,2.016H43.346a1.009,1.009,0,0,1,1.008,1.008Zm0,0" transform="translate(0)" fill="#f82828"/>
        <path id="Caminho_214-3" data-name="Caminho 214" d="M82.145,71.056V65.008A1.008,1.008,0,0,0,81.137,64H67.024A3.028,3.028,0,0,0,64,67.024V81.137a1.008,1.008,0,0,0,1.008,1.008h6.048a1.008,1.008,0,0,0,1.008-1.008V72.064h9.072A1.008,1.008,0,0,0,82.145,71.056Zm-2.016-1.008H71.056a1.008,1.008,0,0,0-1.008,1.008v9.072H66.016v-13.1a1.009,1.009,0,0,1,1.008-1.008h13.1Zm0,0" transform="translate(-55.936 -55.936)" fill="#f82828"/>
        <path id="Caminho_215-3" data-name="Caminho 215" d="M177.121,160h-6.048a1.008,1.008,0,0,0-1.008,1.008v9.072h-9.072a1.008,1.008,0,0,0-1.008,1.008v6.048a1.008,1.008,0,0,0,1.008,1.008H175.1a3.028,3.028,0,0,0,3.024-3.024V161.008A1.008,1.008,0,0,0,177.121,160Zm-1.008,15.121a1.009,1.009,0,0,1-1.008,1.008H162V172.1h9.072a1.008,1.008,0,0,0,1.008-1.008v-9.072h4.032Zm0,0" transform="translate(-139.826 -139.839)" fill="#f82828"/>
      </g>
      <g id="github-logo-3" data-name="github-logo">
        <path id="Caminho_212-3" data-name="Caminho 212" d="M50.873,18.944a27.147,27.147,0,0,0-9.922-9.923A26.668,26.668,0,0,0,27.265,5.365,26.671,26.671,0,0,0,13.579,9.022a27.144,27.144,0,0,0-9.923,9.923A26.67,26.67,0,0,0,0,32.629,26.5,26.5,0,0,0,5.2,48.658,26.7,26.7,0,0,0,18.638,58.51a1.589,1.589,0,0,0,1.42-.248,1.388,1.388,0,0,0,.461-1.065q0-.106-.018-1.917t-.018-3.159l-.817.141a10.416,10.416,0,0,1-1.97.124,15.012,15.012,0,0,1-2.467-.249,5.513,5.513,0,0,1-2.379-1.064,4.5,4.5,0,0,1-1.562-2.183l-.355-.817a8.871,8.871,0,0,0-1.118-1.81,4.284,4.284,0,0,0-1.544-1.349l-.249-.178a2.606,2.606,0,0,1-.461-.426,1.947,1.947,0,0,1-.319-.5q-.107-.249.177-.409a2.3,2.3,0,0,1,1.03-.159l.71.106a5.182,5.182,0,0,1,1.757.852,5.73,5.73,0,0,1,1.722,1.846,6.258,6.258,0,0,0,1.97,2.219,4.18,4.18,0,0,0,2.325.763,10.1,10.1,0,0,0,2.024-.177,7.061,7.061,0,0,0,1.6-.533,5.752,5.752,0,0,1,1.739-3.657,24.309,24.309,0,0,1-3.639-.639,14.489,14.489,0,0,1-3.337-1.385,9.557,9.557,0,0,1-2.858-2.378A11.43,11.43,0,0,1,10.6,36.534a17.726,17.726,0,0,1-.728-5.325,10.355,10.355,0,0,1,2.8-7.314,9.544,9.544,0,0,1,.248-7.242,4.975,4.975,0,0,1,3.053.479A21.346,21.346,0,0,1,18.94,18.5q.941.567,1.509.958a25.639,25.639,0,0,1,13.633,0l1.349-.852A19.106,19.106,0,0,1,38.7,17.044a4.652,4.652,0,0,1,2.877-.39,9.452,9.452,0,0,1,.283,7.242,10.357,10.357,0,0,1,2.805,7.314,17.925,17.925,0,0,1-.728,5.343,10.986,10.986,0,0,1-1.881,3.728,9.925,9.925,0,0,1-2.876,2.361,14.516,14.516,0,0,1-3.337,1.385,24.283,24.283,0,0,1-3.639.64q1.845,1.6,1.846,5.041V57.2a1.414,1.414,0,0,0,.444,1.065,1.542,1.542,0,0,0,1.4.248A26.7,26.7,0,0,0,49.33,48.657a26.5,26.5,0,0,0,5.2-16.029A26.692,26.692,0,0,0,50.873,18.944Z" transform="translate(0 -5.365)" fill="#f82828"/>
      </g>
      <path id="linkedin-3" data-name="linkedin" d="M14.083,37.229H7.922V17.338h6.161ZM14.7,11a3.608,3.608,0,1,0-3.606,3.609A3.609,3.609,0,0,0,14.7,11ZM37.141,26.286c0-5.34-1.128-9.3-7.366-9.3a6.393,6.393,0,0,0-5.83,3.058h-.006V17.338H17.955V37.229h5.985V27.353c0-2.586.658-5.092,3.864-5.092,3.162,0,3.265,2.958,3.265,5.256v9.712h6.073Zm7.921,13.5V5.281A5.287,5.287,0,0,0,39.782,0H5.281A5.287,5.287,0,0,0,0,5.281v34.5a5.287,5.287,0,0,0,5.281,5.281h34.5A5.287,5.287,0,0,0,45.062,39.782ZM39.782,3.52a1.762,1.762,0,0,1,1.76,1.76v34.5a1.762,1.762,0,0,1-1.76,1.76H5.281a1.762,1.762,0,0,1-1.76-1.76V5.281a1.762,1.762,0,0,1,1.76-1.76Zm0,0" transform="translate(142.234 4)" fill="#f82828"/>
      <path id="dribbble-3" data-name="dribbble" d="M34.419,48.764c.042-.013.082-.029.124-.044C60.251,38.506,53.14,0,25.256,0a25.245,25.245,0,1,0,9.164,48.764Zm-23.3-6.548c1.793-3.014,7.6-11.517,17.5-14.45a53.192,53.192,0,0,1,3.666,18.426,21.958,21.958,0,0,1-21.166-3.976Zm24.271,2.658a56.667,56.667,0,0,0-3.6-17.82,28.6,28.6,0,0,1,15.206,2.077A22.149,22.149,0,0,1,35.385,44.875ZM47.323,25.868a30.625,30.625,0,0,0-16.751-1.755c-.747-1.684-1.532-3.3-2.363-4.792a42.1,42.1,0,0,0,13.758-8.482A21.815,21.815,0,0,1,47.323,25.868Zm-7.6-17.277A40.512,40.512,0,0,1,26.55,16.526,59.06,59.06,0,0,0,16.873,4.82,21.968,21.968,0,0,1,39.725,8.591ZM13.855,6.362a55.557,55.557,0,0,1,9.572,11.275,69.488,69.488,0,0,1-19.8,3.1A22.14,22.14,0,0,1,13.855,6.362ZM3.224,23.909A72.674,72.674,0,0,0,25.131,20.44c.791,1.387,1.543,2.9,2.265,4.468C17.431,28.082,11.2,36.275,8.818,39.975A21.811,21.811,0,0,1,3.224,23.909Z" transform="translate(269.013 1)" fill="#f82828"/>
      <g id="XMLID_468_3" data-name="XMLID_468_" transform="translate(400.601 2)">
        <path id="XMLID_469_3" data-name="XMLID_469_" d="M104.6,95.346c-.1-.046-3.718-1.83-4.362-2.061A2.5,2.5,0,0,0,99.4,93.1a1.435,1.435,0,0,0-1.22.722c-.362.538-1.457,1.818-1.8,2.2-.044.05-.1.111-.141.111s-.593-.231-.763-.3c-3.885-1.687-6.833-5.745-7.238-6.43a.4.4,0,0,1-.061-.143A1.167,1.167,0,0,1,88.391,89c.2-.2.411-.452.618-.7.1-.118.2-.236.292-.347a3.9,3.9,0,0,0,.588-.934l.081-.163a1.689,1.689,0,0,0-.049-1.59c-.086-.171-1.615-3.862-1.777-4.249-.391-.936-.908-1.371-1.625-1.371-.067,0,0,0-.279.012a8.68,8.68,0,0,0-3.011.774c-.868.548-2.338,2.293-2.338,5.362A11.558,11.558,0,0,0,83.4,92.16c.019.025.053.076.1.149,2.883,4.21,6.476,7.33,10.119,8.785,3.507,1.4,5.168,1.563,6.112,1.563h0a9.55,9.55,0,0,0,.994-.059l.178-.017c1.212-.107,3.874-1.487,4.48-3.17a5.011,5.011,0,0,0,.285-3.3A2.286,2.286,0,0,0,104.6,95.346Z" transform="translate(-67.844 -66.802)" fill="#f82828"/>
        <path id="XMLID_470_3" data-name="XMLID_470_" d="M25.278,0A24.335,24.335,0,0,0,.88,24.215,24.037,24.037,0,0,0,4.225,36.461L.034,48.822a.645.645,0,0,0,.806.822l12.89-4.1A24.437,24.437,0,0,0,49.675,24.215,24.334,24.334,0,0,0,25.278,0Zm0,43.384a19.329,19.329,0,0,1-10.634-3.17.645.645,0,0,0-.549-.075L7.638,42.19l2.084-6.149a.645.645,0,0,0-.09-.588A18.908,18.908,0,0,1,5.953,24.215,19.325,19.325,0,1,1,25.278,43.384Z" transform="translate(0)" fill="#f82828"/>
      </g>
    </g>
    <g id="Grupo_186" data-name="Grupo 186" transform="translate(1659 1519)">
      <path id="_002-twitter-4" data-name="002-twitter" d="M58.628,6.409c-3.688.17-3.607.156-4.024.191L56.787.362S49.97,2.87,48.241,3.319a13.679,13.679,0,0,0-16.11-1.3A11.157,11.157,0,0,0,26.769,13.5,29.759,29.759,0,0,1,7.49,2.642L5.873.7,4.664,2.919a13.412,13.412,0,0,0-1.429,9.029,12.972,12.972,0,0,0,1.257,3.525L3.1,14.935,2.94,17.253a12.37,12.37,0,0,0,2.1,7.353,13.075,13.075,0,0,0,1.634,2.015l-.717-.11.875,2.656a12.914,12.914,0,0,0,6.638,7.692c-3.1,1.314-5.6,2.152-9.707,3.5L0,41.6l3.474,1.9A36.461,36.461,0,0,0,14.1,47.367c10.279,1.612,21.852.3,29.643-6.717,6.562-5.91,8.715-14.317,8.268-23.066a5.466,5.466,0,0,1,1.022-3.559C54.49,12.083,58.619,6.422,58.628,6.409Zm-8.34,5.559a8.9,8.9,0,0,0-1.7,5.792c.451,8.825-1.95,15.668-7.137,20.34-6.059,5.457-15.833,7.6-26.814,5.877a26.591,26.591,0,0,1-5.745-1.707,91.1,91.1,0,0,0,10.406-4.277l6-2.84-6.624-.424a9.369,9.369,0,0,1-7.439-4.238,11.882,11.882,0,0,0,2.522-.42l6.318-1.76L13.7,26.75a9.489,9.489,0,0,1-5.8-4.031,9.718,9.718,0,0,1-1.256-2.771,15.9,15.9,0,0,0,2.584.412l5.9.583L10.458,17.3A9.834,9.834,0,0,1,6.731,6.936C17.237,17.833,29.573,17.014,30.814,17.3a20.339,20.339,0,0,0-.352-2.914c-1.59-5.621,1.895-8.475,3.467-9.441a10.26,10.26,0,0,1,12.1,1,3.074,3.074,0,0,0,2.821.755A23.74,23.74,0,0,0,51.178,6L49.7,10.228h1.891C51.231,10.708,50.8,11.281,50.288,11.968Zm0,0" transform="translate(69.296 3)" fill="#f82828"/>
      <g id="_004-instagram-4" data-name="004-instagram" transform="translate(206.593 4)">
        <path id="Caminho_209-4" data-name="Caminho 209" d="M32.864,0H12.2A12.212,12.212,0,0,0,0,12.2V32.865a12.212,12.212,0,0,0,12.2,12.2H32.865a12.212,12.212,0,0,0,12.2-12.2V12.2A12.212,12.212,0,0,0,32.864,0Zm9.556,32.865a9.567,9.567,0,0,1-9.556,9.556H12.2a9.567,9.567,0,0,1-9.556-9.556V12.2A9.567,9.567,0,0,1,12.2,2.642H32.865A9.567,9.567,0,0,1,42.421,12.2Zm0,0" fill="#f82828"/>
        <path id="Caminho_210-4" data-name="Caminho 210" d="M128.325,116a12.321,12.321,0,1,0,12.321,12.321A12.335,12.335,0,0,0,128.325,116Zm0,22a9.68,9.68,0,1,1,9.68-9.68A9.691,9.691,0,0,1,128.325,138Zm0,0" transform="translate(-105.794 -105.794)" fill="#f82828"/>
        <path id="Caminho_211-4" data-name="Caminho 211" d="M361.617,66.285a3.641,3.641,0,1,0,3.641,3.641A3.645,3.645,0,0,0,361.617,66.285Zm0,4.64a1,1,0,1,1,1-1A1,1,0,0,1,361.617,70.925Zm0,0" transform="translate(-326.47 -60.451)" fill="#f82828"/>
      </g>
      <g id="shutterstock-4" data-name="shutterstock" transform="translate(336.853 3)">
        <path id="Caminho_213-4" data-name="Caminho 213" d="M43.346,0H3.024A3.028,3.028,0,0,0,0,3.024V43.346A3.028,3.028,0,0,0,3.024,46.37H43.346a3.028,3.028,0,0,0,3.024-3.024V3.024A3.028,3.028,0,0,0,43.346,0Zm1.008,43.346a1.009,1.009,0,0,1-1.008,1.008H3.024a1.009,1.009,0,0,1-1.008-1.008V3.024A1.009,1.009,0,0,1,3.024,2.016H43.346a1.009,1.009,0,0,1,1.008,1.008Zm0,0" transform="translate(0)" fill="#f82828"/>
        <path id="Caminho_214-4" data-name="Caminho 214" d="M82.145,71.056V65.008A1.008,1.008,0,0,0,81.137,64H67.024A3.028,3.028,0,0,0,64,67.024V81.137a1.008,1.008,0,0,0,1.008,1.008h6.048a1.008,1.008,0,0,0,1.008-1.008V72.064h9.072A1.008,1.008,0,0,0,82.145,71.056Zm-2.016-1.008H71.056a1.008,1.008,0,0,0-1.008,1.008v9.072H66.016v-13.1a1.009,1.009,0,0,1,1.008-1.008h13.1Zm0,0" transform="translate(-55.936 -55.936)" fill="#f82828"/>
        <path id="Caminho_215-4" data-name="Caminho 215" d="M177.121,160h-6.048a1.008,1.008,0,0,0-1.008,1.008v9.072h-9.072a1.008,1.008,0,0,0-1.008,1.008v6.048a1.008,1.008,0,0,0,1.008,1.008H175.1a3.028,3.028,0,0,0,3.024-3.024V161.008A1.008,1.008,0,0,0,177.121,160Zm-1.008,15.121a1.009,1.009,0,0,1-1.008,1.008H162V172.1h9.072a1.008,1.008,0,0,0,1.008-1.008v-9.072h4.032Zm0,0" transform="translate(-139.826 -139.839)" fill="#f82828"/>
      </g>
      <g id="github-logo-4" data-name="github-logo">
        <path id="Caminho_212-4" data-name="Caminho 212" d="M50.873,18.944a27.147,27.147,0,0,0-9.922-9.923A26.668,26.668,0,0,0,27.265,5.365,26.671,26.671,0,0,0,13.579,9.022a27.144,27.144,0,0,0-9.923,9.923A26.67,26.67,0,0,0,0,32.629,26.5,26.5,0,0,0,5.2,48.658,26.7,26.7,0,0,0,18.638,58.51a1.589,1.589,0,0,0,1.42-.248,1.388,1.388,0,0,0,.461-1.065q0-.106-.018-1.917t-.018-3.159l-.817.141a10.416,10.416,0,0,1-1.97.124,15.012,15.012,0,0,1-2.467-.249,5.513,5.513,0,0,1-2.379-1.064,4.5,4.5,0,0,1-1.562-2.183l-.355-.817a8.871,8.871,0,0,0-1.118-1.81,4.284,4.284,0,0,0-1.544-1.349l-.249-.178a2.606,2.606,0,0,1-.461-.426,1.947,1.947,0,0,1-.319-.5q-.107-.249.177-.409a2.3,2.3,0,0,1,1.03-.159l.71.106a5.182,5.182,0,0,1,1.757.852,5.73,5.73,0,0,1,1.722,1.846,6.258,6.258,0,0,0,1.97,2.219,4.18,4.18,0,0,0,2.325.763,10.1,10.1,0,0,0,2.024-.177,7.061,7.061,0,0,0,1.6-.533,5.752,5.752,0,0,1,1.739-3.657,24.309,24.309,0,0,1-3.639-.639,14.489,14.489,0,0,1-3.337-1.385,9.557,9.557,0,0,1-2.858-2.378A11.43,11.43,0,0,1,10.6,36.534a17.726,17.726,0,0,1-.728-5.325,10.355,10.355,0,0,1,2.8-7.314,9.544,9.544,0,0,1,.248-7.242,4.975,4.975,0,0,1,3.053.479A21.346,21.346,0,0,1,18.94,18.5q.941.567,1.509.958a25.639,25.639,0,0,1,13.633,0l1.349-.852A19.106,19.106,0,0,1,38.7,17.044a4.652,4.652,0,0,1,2.877-.39,9.452,9.452,0,0,1,.283,7.242,10.357,10.357,0,0,1,2.805,7.314,17.925,17.925,0,0,1-.728,5.343,10.986,10.986,0,0,1-1.881,3.728,9.925,9.925,0,0,1-2.876,2.361,14.516,14.516,0,0,1-3.337,1.385,24.283,24.283,0,0,1-3.639.64q1.845,1.6,1.846,5.041V57.2a1.414,1.414,0,0,0,.444,1.065,1.542,1.542,0,0,0,1.4.248A26.7,26.7,0,0,0,49.33,48.657a26.5,26.5,0,0,0,5.2-16.029A26.692,26.692,0,0,0,50.873,18.944Z" transform="translate(0 -5.365)" fill="#f82828"/>
      </g>
      <path id="linkedin-4" data-name="linkedin" d="M14.083,37.229H7.922V17.338h6.161ZM14.7,11a3.608,3.608,0,1,0-3.606,3.609A3.609,3.609,0,0,0,14.7,11ZM37.141,26.286c0-5.34-1.128-9.3-7.366-9.3a6.393,6.393,0,0,0-5.83,3.058h-.006V17.338H17.955V37.229h5.985V27.353c0-2.586.658-5.092,3.864-5.092,3.162,0,3.265,2.958,3.265,5.256v9.712h6.073Zm7.921,13.5V5.281A5.287,5.287,0,0,0,39.782,0H5.281A5.287,5.287,0,0,0,0,5.281v34.5a5.287,5.287,0,0,0,5.281,5.281h34.5A5.287,5.287,0,0,0,45.062,39.782ZM39.782,3.52a1.762,1.762,0,0,1,1.76,1.76v34.5a1.762,1.762,0,0,1-1.76,1.76H5.281a1.762,1.762,0,0,1-1.76-1.76V5.281a1.762,1.762,0,0,1,1.76-1.76Zm0,0" transform="translate(142.234 4)" fill="#f82828"/>
      <path id="dribbble-4" data-name="dribbble" d="M34.419,48.764c.042-.013.082-.029.124-.044C60.251,38.506,53.14,0,25.256,0a25.245,25.245,0,1,0,9.164,48.764Zm-23.3-6.548c1.793-3.014,7.6-11.517,17.5-14.45a53.192,53.192,0,0,1,3.666,18.426,21.958,21.958,0,0,1-21.166-3.976Zm24.271,2.658a56.667,56.667,0,0,0-3.6-17.82,28.6,28.6,0,0,1,15.206,2.077A22.149,22.149,0,0,1,35.385,44.875ZM47.323,25.868a30.625,30.625,0,0,0-16.751-1.755c-.747-1.684-1.532-3.3-2.363-4.792a42.1,42.1,0,0,0,13.758-8.482A21.815,21.815,0,0,1,47.323,25.868Zm-7.6-17.277A40.512,40.512,0,0,1,26.55,16.526,59.06,59.06,0,0,0,16.873,4.82,21.968,21.968,0,0,1,39.725,8.591ZM13.855,6.362a55.557,55.557,0,0,1,9.572,11.275,69.488,69.488,0,0,1-19.8,3.1A22.14,22.14,0,0,1,13.855,6.362ZM3.224,23.909A72.674,72.674,0,0,0,25.131,20.44c.791,1.387,1.543,2.9,2.265,4.468C17.431,28.082,11.2,36.275,8.818,39.975A21.811,21.811,0,0,1,3.224,23.909Z" transform="translate(269.013 1)" fill="#f82828"/>
      <g id="XMLID_468_4" data-name="XMLID_468_" transform="translate(400.601 2)">
        <path id="XMLID_469_4" data-name="XMLID_469_" d="M104.6,95.346c-.1-.046-3.718-1.83-4.362-2.061A2.5,2.5,0,0,0,99.4,93.1a1.435,1.435,0,0,0-1.22.722c-.362.538-1.457,1.818-1.8,2.2-.044.05-.1.111-.141.111s-.593-.231-.763-.3c-3.885-1.687-6.833-5.745-7.238-6.43a.4.4,0,0,1-.061-.143A1.167,1.167,0,0,1,88.391,89c.2-.2.411-.452.618-.7.1-.118.2-.236.292-.347a3.9,3.9,0,0,0,.588-.934l.081-.163a1.689,1.689,0,0,0-.049-1.59c-.086-.171-1.615-3.862-1.777-4.249-.391-.936-.908-1.371-1.625-1.371-.067,0,0,0-.279.012a8.68,8.68,0,0,0-3.011.774c-.868.548-2.338,2.293-2.338,5.362A11.558,11.558,0,0,0,83.4,92.16c.019.025.053.076.1.149,2.883,4.21,6.476,7.33,10.119,8.785,3.507,1.4,5.168,1.563,6.112,1.563h0a9.55,9.55,0,0,0,.994-.059l.178-.017c1.212-.107,3.874-1.487,4.48-3.17a5.011,5.011,0,0,0,.285-3.3A2.286,2.286,0,0,0,104.6,95.346Z" transform="translate(-67.844 -66.802)" fill="#f82828"/>
        <path id="XMLID_470_4" data-name="XMLID_470_" d="M25.278,0A24.335,24.335,0,0,0,.88,24.215,24.037,24.037,0,0,0,4.225,36.461L.034,48.822a.645.645,0,0,0,.806.822l12.89-4.1A24.437,24.437,0,0,0,49.675,24.215,24.334,24.334,0,0,0,25.278,0Zm0,43.384a19.329,19.329,0,0,1-10.634-3.17.645.645,0,0,0-.549-.075L7.638,42.19l2.084-6.149a.645.645,0,0,0-.09-.588A18.908,18.908,0,0,1,5.953,24.215,19.325,19.325,0,1,1,25.278,43.384Z" transform="translate(0)" fill="#f82828"/>
      </g>
    </g>
  </g>
</svg>
